<svg width="24" height="24" viewBox="0 0 24 24" fill="none" xmlns="http://www.w3.org/2000/svg">
<path fill-rule="evenodd" clip-rule="evenodd" d="M12.0003 1C8.31826 1 5.00026 3.565 5.00026 7V11.539C5.00025 12.1807 4.81027 12.8081 4.45426 13.342L2.25426 16.641C2.10204 16.8697 2.01475 17.1355 2.00171 17.41C1.98867 17.6844 2.05036 17.9572 2.18021 18.1994C2.31006 18.4415 2.50319 18.6439 2.73901 18.7849C2.97483 18.9259 3.2445 19.0002 3.51926 19H8.50026C8.50026 19.4596 8.59079 19.9148 8.76668 20.3394C8.94257 20.764 9.20038 21.1499 9.52539 21.4749C9.85039 21.7999 10.2362 22.0577 10.6609 22.2336C11.0855 22.4095 11.5406 22.5 12.0003 22.5C12.4599 22.5 12.915 22.4095 13.3397 22.2336C13.7643 22.0577 14.1501 21.7999 14.4751 21.4749C14.8001 21.1499 15.0579 20.764 15.2338 20.3394C15.4097 19.9148 15.5003 19.4596 15.5003 19H20.4823C20.757 19 21.0266 18.9254 21.2623 18.7842C21.498 18.643 21.6909 18.4405 21.8206 18.1983C21.9502 17.956 22.0117 17.6831 21.9984 17.4087C21.9851 17.1343 21.8977 16.8686 21.7453 16.64L19.5453 13.342C19.1896 12.808 19 12.1806 19.0003 11.539V7C19.0003 3.565 15.6813 1 12.0003 1ZM6.50026 7C6.50026 4.636 8.88326 2.5 12.0003 2.5C15.1173 2.5 17.5003 4.636 17.5003 7V11.539C17.5003 12.477 17.7783 13.393 18.2983 14.174L20.4973 17.473C20.4993 17.4759 20.5003 17.4794 20.5003 17.483L20.4993 17.489L20.4953 17.495L20.4893 17.499L20.4823 17.5H3.51826L3.51126 17.499L3.50526 17.495L3.50126 17.489L3.50026 17.482L3.50326 17.472L5.70326 14.174C6.2232 13.3936 6.50052 12.4767 6.50026 11.539V7ZM14.0003 19H10.0003C10.0003 19.5304 10.211 20.0391 10.586 20.4142C10.9611 20.7893 11.4698 21 12.0003 21C12.5307 21 13.0394 20.7893 13.4145 20.4142C13.7895 20.0391 14.0003 19.5304 14.0003 19Z" fill="black"/>
</svg>
