<svg width="16" height="16" viewBox="0 0 16 16" fill="none" xmlns="http://www.w3.org/2000/svg">
<path d="M15.6391 2.92624L13.0685 0.360243C12.9544 0.246053 12.8188 0.155454 12.6696 0.0936369C12.5204 0.0318199 12.3604 0 12.1989 0C12.0373 0 11.8773 0.0318199 11.7281 0.0936369C11.5789 0.155454 11.4433 0.246053 11.3293 0.360243L0.871218 10.8603L0.0245057 14.5227C-0.0115662 14.7003 -0.00777419 14.8836 0.0356098 15.0595C0.0789937 15.2353 0.160891 15.3995 0.27541 15.54C0.38993 15.6805 0.534226 15.794 0.697919 15.8722C0.861612 15.9504 1.04063 15.9914 1.22211 15.9923C1.3159 16.0026 1.41055 16.0026 1.50435 15.9923L5.20395 15.1775L15.6391 4.66229C15.7535 4.54841 15.8443 4.41312 15.9062 4.26417C15.9681 4.11522 16 3.95553 16 3.79426C16 3.63299 15.9681 3.47331 15.9062 3.32436C15.8443 3.17541 15.7535 3.04012 15.6391 2.92624ZM4.41063 13.7689L1.61877 14.3857L2.26715 11.6217L10.1393 3.71051L12.2904 5.85772L4.41063 13.7689ZM13.1524 4.99731L11.0013 2.8501L12.1836 1.64705L14.35 3.80949L13.1524 4.99731Z" fill="black"/>
</svg>
