<?xml version="1.0" standalone="no"?>
  <!DOCTYPE svg PUBLIC "-//W3C//DTD SVG 1.1//EN" "http://www.w3.org/Graphics/SVG/1.1/DTD/svg11.dtd" >
  <svg>
  <metadata>
  Created by font-carrier
  </metadata>
  <defs>
  <font id=".HelveticaNeueDeskInterface-Regular" horiz-adv-x="2662" vert-adv-y="2662" >
    <font-face
      
      font-family="SFNS Display"
      
      font-weight="400"
      
      font-stretch="normal"
      
      units-per-em="2048"
      
      ascent="1980"
      
      descent="-432"
      
    />
      <missing-glyph />

      

      
      <glyph glyph-name="uni41" unicode="&#x41;" d="M933 413L359 413L214 0L25 0L557 1443L735 1443L1267 0L1078 0L933 413M412 566L880 566L649 1224L643 1224L412 566Z"  horiz-adv-x="1292" vert-adv-y="2048"  />

      
      <glyph glyph-name="unic0" unicode="&#xc0;" d="M933 413L359 413L214 0L25 0L557 1443L735 1443L1267 0L1078 0L933 413M412 566L880 566L649 1224L643 1224L412 566M291 1849L489 1849L720 1550L572 1550L291 1849Z"  horiz-adv-x="1292" vert-adv-y="2048"  />

      
      <glyph glyph-name="unic1" unicode="&#xc1;" d="M933 413L359 413L214 0L25 0L557 1443L735 1443L1267 0L1078 0L933 413M412 566L880 566L649 1224L643 1224L412 566M575 1550L806 1849L1004 1849L723 1550L575 1550Z"  horiz-adv-x="1292" vert-adv-y="2048"  />

      
      <glyph glyph-name="unic4" unicode="&#xc4;" d="M933 413L359 413L214 0L25 0L557 1443L735 1443L1267 0L1078 0L933 413M412 566L880 566L649 1224L643 1224L412 566M449 1585Q426 1585 405.50 1594Q385 1603 370 1618Q355 1633 346 1653.50Q337 1674 337 1697Q337 1720 346 1740.50Q355 1761 370 1776Q385 1791 405.50 1800Q426 1809 449 1809Q472 1809 492.50 1800Q513 1791 528 1776Q543 1761 552 1740.50Q561 1720 561 1697Q561 1674 552 1653.50Q543 1633 528 1618Q513 1603 492.50 1594Q472 1585 449 1585M843 1585Q820 1585 799.50 1594Q779 1603 764 1618Q749 1633 740 1653.50Q731 1674 731 1697Q731 1720 740 1740.50Q749 1761 764 1776Q779 1791 799.50 1800Q820 1809 843 1809Q866 1809 886.50 1800Q907 1791 922 1776Q937 1761 946 1740.50Q955 1720 955 1697Q955 1674 946 1653.50Q937 1633 922 1618Q907 1603 886.50 1594Q866 1585 843 1585Z"  horiz-adv-x="1292" vert-adv-y="2048"  />

      
      <glyph glyph-name="uni01DE" unicode="&#x01DE;" d="M933 413L359 413L214 0L25 0L557 1443L735 1443L1267 0L1078 0L933 413M412 566L880 566L649 1224L643 1224L412 566M460 1790Q480 1790 497.50 1782Q515 1774 528.50 1760.50Q542 1747 550 1729Q558 1711 558 1691Q558 1670 550 1652Q542 1634 528.50 1620.50Q515 1607 497.50 1599.50Q480 1592 460 1592Q418 1592 389.50 1620.50Q361 1649 361 1691Q361 1711 368.50 1729Q376 1747 389.50 1760.50Q403 1774 421 1782Q439 1790 460 1790M963 2025L963 1919L329 1919L329 2025L963 2025M832 1790Q853 1790 871 1782Q889 1774 902.50 1760.50Q916 1747 923.50 1729Q931 1711 931 1691Q931 1649 902.50 1620.50Q874 1592 832 1592Q812 1592 794.50 1599.50Q777 1607 763.50 1620.50Q750 1634 742 1652Q734 1670 734 1691Q734 1711 742 1729Q750 1747 763.50 1760.50Q777 1774 794.50 1782Q812 1790 832 1790Z"  horiz-adv-x="1292" vert-adv-y="2048"  />

      
      <glyph glyph-name="unic5" unicode="&#xc5;" d="M933 413L359 413L214 0L25 0L557 1443L735 1443L1267 0L1078 0L933 413M412 566L880 566L649 1224L643 1224L412 566M646 1507Q605 1507 569 1523Q533 1539 506 1566Q479 1593 463 1629Q447 1665 447 1706Q447 1747 463 1783Q479 1819 506 1846Q533 1873 569 1889Q605 1905 646 1905Q687 1905 723 1889Q759 1873 786 1846Q813 1819 829 1783Q845 1747 845 1706Q845 1665 829 1629Q813 1593 786 1566Q759 1539 723 1523Q687 1507 646 1507M646 1590Q670 1590 691 1599Q712 1608 728 1624Q744 1640 753 1661Q762 1682 762 1706Q762 1730 753 1751Q744 1772 728 1788Q712 1804 691 1813Q670 1822 646 1822Q622 1822 601 1813Q580 1804 564 1788Q548 1772 539 1751Q530 1730 530 1706Q530 1682 539 1661Q548 1640 564 1624Q580 1608 601 1599Q622 1590 646 1590Z"  horiz-adv-x="1292" vert-adv-y="2048"  />

      
      <glyph glyph-name="uni01FA" unicode="&#x01FA;" d="M933 413L359 413L214 0L25 0L557 1443L735 1443L1267 0L1078 0L933 413M412 566L880 566L649 1224L643 1224L412 566M646 1476Q605 1476 569 1492Q533 1508 506 1535Q479 1562 463 1598Q447 1634 447 1675Q447 1716 463 1752Q479 1788 506 1815Q533 1842 569 1858Q605 1874 646 1874Q687 1874 723 1858Q759 1842 786 1815Q813 1788 829 1752Q845 1716 845 1675Q845 1634 829 1598Q813 1562 786 1535Q759 1508 723 1492Q687 1476 646 1476M646 1558Q670 1558 691.50 1567Q713 1576 729 1592Q745 1608 754 1629.50Q763 1651 763 1675Q763 1699 754 1720.50Q745 1742 729 1758Q713 1774 691.50 1783Q670 1792 646 1792Q622 1792 600.50 1783Q579 1774 563 1758Q547 1742 538 1720.50Q529 1699 529 1675Q529 1651 538 1629.50Q547 1608 563 1592Q579 1576 600.50 1567Q622 1558 646 1558M887 2095L709 1910L592 1910L712 2095L887 2095Z"  horiz-adv-x="1292" vert-adv-y="2048"  />

      
      <glyph glyph-name="unic3" unicode="&#xc3;" d="M933 413L359 413L214 0L25 0L557 1443L735 1443L1267 0L1078 0L933 413M412 566L880 566L649 1224L643 1224L412 566M774 1535Q742 1535 716.50 1546.50Q691 1558 670 1574.50Q649 1591 631 1611Q613 1631 596 1647.50Q579 1664 562 1675.50Q545 1687 525 1687Q492 1687 474 1651.50Q456 1616 456 1550L342 1550Q342 1668 388.50 1734Q435 1800 520 1800Q554 1800 581.50 1788.50Q609 1777 631 1760.50Q653 1744 671 1724Q689 1704 706 1687.50Q723 1671 739 1659.50Q755 1648 774 1648Q836 1648 836 1786L950 1786Q950 1729 937.50 1682.50Q925 1636 902 1603Q879 1570 846.50 1552.50Q814 1535 774 1535Z"  horiz-adv-x="1292" vert-adv-y="2048"  />

      
      <glyph glyph-name="uni1EB0" unicode="&#x1EB0;" d="M933 413L359 413L214 0L25 0L557 1443L735 1443L1267 0L1078 0L933 413M412 566L880 566L649 1224L643 1224L412 566M962 1849Q962 1787 939.50 1736.50Q917 1686 875.50 1650Q834 1614 775.50 1594.50Q717 1575 646 1575Q575 1575 516.50 1594.50Q458 1614 416.50 1650Q375 1686 352.50 1736.50Q330 1787 330 1849L459 1849Q459 1813 473.50 1783Q488 1753 513 1730.50Q538 1708 572 1695.50Q606 1683 646 1683Q686 1683 720 1695.50Q754 1708 779 1730.50Q804 1753 818.50 1783Q833 1813 833 1849L962 1849M628 1849L392 2053L579 2053L764 1849L628 1849Z"  horiz-adv-x="1292" vert-adv-y="2048"  />

      
      <glyph glyph-name="uni01E0" unicode="&#x01E0;" d="M933 413L359 413L214 0L25 0L557 1443L735 1443L1267 0L1078 0L933 413M412 566L880 566L649 1224L643 1224L412 566M646 1574Q622 1574 600.50 1583Q579 1592 563 1608Q547 1624 538 1645.50Q529 1667 529 1691Q529 1715 538 1735.50Q547 1756 563 1772Q579 1788 600.50 1797Q622 1806 646 1806Q670 1806 691.50 1797Q713 1788 729 1772Q745 1756 754 1735.50Q763 1715 763 1691Q763 1667 754 1645.50Q745 1624 729 1608Q713 1592 691.50 1583Q670 1574 646 1574M963 1919L329 1919L329 2025L963 2025L963 1919Z"  horiz-adv-x="1292" vert-adv-y="2048"  />

      
      <glyph glyph-name="uni1E00" unicode="&#x1E00;" d="M933 413L359 413L214 0L25 0L557 1443L735 1443L1267 0L1078 0L933 413M412 566L880 566L649 1224L643 1224L412 566M646-558Q605-558 569-542Q533-526 506-499Q479-472 463-436Q447-400 447-359Q447-318 463-282Q479-246 506-219Q533-192 569-176Q605-160 646-160Q687-160 723-176Q759-192 786-219Q813-246 829-282Q845-318 845-359Q845-400 829-436Q813-472 786-499Q759-526 723-542Q687-558 646-558M646-475Q670-475 691-466Q712-457 728-441Q744-425 753-404Q762-383 762-359Q762-335 753-314Q744-293 728-277Q712-261 691-252Q670-243 646-243Q622-243 601-252Q580-261 564-277Q548-293 539-314Q530-335 530-359Q530-383 539-404Q548-425 564-441Q580-457 601-466Q622-475 646-475Z"  horiz-adv-x="1292" vert-adv-y="2048"  />

      
      <glyph glyph-name="unic2" unicode="&#xc2;" d="M933 413L359 413L214 0L25 0L557 1443L735 1443L1267 0L1078 0L933 413M412 566L880 566L649 1224L643 1224L412 566M717 1849L1009 1550L841 1550L647 1751L645 1751L451 1550L283 1550L575 1849L717 1849Z"  horiz-adv-x="1292" vert-adv-y="2048"  />

      
      <glyph glyph-name="uni1EAC" unicode="&#x1EAC;" d="M933 413L359 413L214 0L25 0L557 1443L735 1443L1267 0L1078 0L933 413M412 566L880 566L649 1224L643 1224L412 566M717 1849L1009 1550L841 1550L647 1751L645 1751L451 1550L283 1550L575 1849L717 1849M646-392Q621-392 599-382.50Q577-373 560.50-356.50Q544-340 534.50-318Q525-296 525-271Q525-246 534.50-224Q544-202 560.50-185.50Q577-169 599-159.50Q621-150 646-150Q671-150 693-159.50Q715-169 731.50-185.50Q748-202 757.50-224Q767-246 767-271Q767-296 757.50-318Q748-340 731.50-356.50Q715-373 693-382.50Q671-392 646-392Z"  horiz-adv-x="1292" vert-adv-y="2048"  />

      
      <glyph glyph-name="uni1EA4" unicode="&#x1EA4;" d="M933 413L359 413L214 0L25 0L557 1443L735 1443L1267 0L1078 0L933 413M412 566L880 566L649 1224L643 1224L412 566M727 1798L993 1575L810 1575L657 1708L642 1708L488 1575L305 1575L572 1798L727 1798M960 2053L1147 2053L911 1849L775 1849L960 2053Z"  horiz-adv-x="1292" vert-adv-y="2048"  />

      
      <glyph glyph-name="uni1EAA" unicode="&#x1EAA;" d="M933 413L359 413L214 0L25 0L557 1443L735 1443L1267 0L1078 0L933 413M412 566L880 566L649 1224L643 1224L412 566M767 1832Q732 1832 708 1842Q684 1852 665.50 1867Q647 1882 633 1900Q619 1918 605 1933Q591 1948 575 1958Q559 1968 537 1968Q499 1968 482 1940.50Q465 1913 462 1849L353 1849Q353 1953 401.50 2010.50Q450 2068 536 2068Q572 2068 598 2058Q624 2048 643.50 2033.50Q663 2019 677.50 2001.50Q692 1984 705.50 1969.50Q719 1955 733 1945Q747 1935 765 1935Q801 1935 818.50 1963Q836 1991 839 2053L947 2053Q947 2003 934 1962Q921 1921 897.50 1892Q874 1863 840.50 1847.50Q807 1832 767 1832M723 1779L990 1575L807 1575L653 1690L639 1690L485 1575L302 1575L569 1779L723 1779Z"  horiz-adv-x="1292" vert-adv-y="2048"  />

      
      <glyph glyph-name="uni1EA6" unicode="&#x1EA6;" d="M933 413L359 413L214 0L25 0L557 1443L735 1443L1267 0L1078 0L933 413M412 566L880 566L649 1224L643 1224L412 566M723 1798L990 1575L807 1575L653 1708L639 1708L485 1575L302 1575L569 1798L723 1798M821 1849L585 2053L772 2053L957 1849L821 1849Z"  horiz-adv-x="1292" vert-adv-y="2048"  />

      
      <glyph glyph-name="uni1EA8" unicode="&#x1EA8;" d="M933 413L359 413L214 0L25 0L557 1443L735 1443L1267 0L1078 0L933 413M412 566L880 566L649 1224L643 1224L412 566M726 1798L992 1575L809 1575L656 1708L641 1708L487 1575L304 1575L571 1798L726 1798M770 2031Q792 2042 820.50 2047.50Q849 2053 875 2053Q912 2053 943.50 2042.50Q975 2032 997 2013Q1019 1994 1031.50 1967Q1044 1940 1044 1907Q1044 1853 1013.50 1810Q983 1767 930 1750L853 1811Q888 1823 909.50 1847.50Q931 1872 931 1901Q931 1927 909.50 1944.50Q888 1962 856 1962Q804 1962 770 1945L770 2031Z"  horiz-adv-x="1292" vert-adv-y="2048"  />

      
      <glyph glyph-name="uni0102" unicode="&#x0102;" d="M933 413L359 413L214 0L25 0L557 1443L735 1443L1267 0L1078 0L933 413M412 566L880 566L649 1224L643 1224L412 566M455 1849Q455 1808 469.50 1772Q484 1736 510 1709.50Q536 1683 570.50 1668Q605 1653 646 1653Q686 1653 721 1668Q756 1683 782 1709.50Q808 1736 822.50 1772Q837 1808 837 1849L956 1849Q956 1783 933.50 1728Q911 1673 870 1633.50Q829 1594 772 1572Q715 1550 646 1550Q577 1550 520 1572Q463 1594 422 1633.50Q381 1673 358.50 1728Q336 1783 336 1849L455 1849Z"  horiz-adv-x="1292" vert-adv-y="2048"  />

      
      <glyph glyph-name="uni1EAE" unicode="&#x1EAE;" d="M933 413L359 413L214 0L25 0L557 1443L735 1443L1267 0L1078 0L933 413M412 566L880 566L649 1224L643 1224L412 566M459 1849Q459 1813 473.50 1783Q488 1753 513 1730.50Q538 1708 572 1695.50Q606 1683 646 1683Q686 1683 720 1695.50Q754 1708 779 1730.50Q804 1753 818.50 1783Q833 1813 833 1849L962 1849Q962 1787 939.50 1736.50Q917 1686 875.50 1650Q834 1614 775.50 1594.50Q717 1575 646 1575Q575 1575 516.50 1594.50Q458 1614 416.50 1650Q375 1686 352.50 1736.50Q330 1787 330 1849L459 1849M713 2053L900 2053L664 1849L528 1849L713 2053Z"  horiz-adv-x="1292" vert-adv-y="2048"  />

      
      <glyph glyph-name="uni1EB4" unicode="&#x1EB4;" d="M933 413L359 413L214 0L25 0L557 1443L735 1443L1267 0L1078 0L933 413M412 566L880 566L649 1224L643 1224L412 566M462 1798Q470 1744 520 1713Q570 1682 646 1682Q723 1682 772.50 1713Q822 1744 830 1798L957 1798Q954 1747 930.50 1705.50Q907 1664 866.50 1635Q826 1606 770 1590.50Q714 1575 646 1575Q578 1575 522 1590.50Q466 1606 425.50 1635Q385 1664 361.50 1705.50Q338 1747 335 1798L462 1798M765 1835Q714 1835 682.50 1855.50Q651 1876 628.50 1900.50Q606 1925 585.50 1945.50Q565 1966 536 1966Q468 1966 462 1849L335 1849Q335 1898 349.50 1938Q364 1978 390 2006.50Q416 2035 452.50 2051Q489 2067 534 2067Q588 2067 621.50 2047Q655 2027 679 2003Q703 1979 721.50 1959Q740 1939 763 1939Q822 1939 830 2053L957 2053Q957 2005 942.50 1965Q928 1925 902.50 1896Q877 1867 842 1851Q807 1835 765 1835Z"  horiz-adv-x="1292" vert-adv-y="2048"  />

      
      <glyph glyph-name="uni1EB2" unicode="&#x1EB2;" d="M933 413L359 413L214 0L25 0L557 1443L735 1443L1267 0L1078 0L933 413M412 566L880 566L649 1224L643 1224L412 566M492 2099Q512 2110 542.50 2117.50Q573 2125 608 2125Q651 2125 685.50 2113.50Q720 2102 745 2080Q770 2058 783.50 2027.50Q797 1997 797 1960Q797 1930 786 1901.50Q775 1873 755 1848.50Q735 1824 706.50 1804.50Q678 1785 643 1772L586 1853Q626 1864 650.50 1892.50Q675 1921 675 1953Q675 1983 650 2003.50Q625 2024 589 2024Q563 2024 536.50 2018Q510 2012 492 2003L492 2099M464 1798Q472 1744 521 1713Q570 1682 646 1682Q723 1682 773.50 1713Q824 1744 832 1798L959 1798Q956 1747 932 1705.50Q908 1664 867.50 1635Q827 1606 770.50 1590.50Q714 1575 646 1575Q578 1575 522.50 1590.50Q467 1606 427 1635Q387 1664 363.50 1705.50Q340 1747 337 1798L464 1798Z"  horiz-adv-x="1292" vert-adv-y="2048"  />

      
      <glyph glyph-name="uni1EB6" unicode="&#x1EB6;" d="M933 413L359 413L214 0L25 0L557 1443L735 1443L1267 0L1078 0L933 413M412 566L880 566L649 1224L643 1224L412 566M455 1849Q455 1808 469.50 1772Q484 1736 510 1709.50Q536 1683 570.50 1668Q605 1653 646 1653Q686 1653 721 1668Q756 1683 782 1709.50Q808 1736 822.50 1772Q837 1808 837 1849L956 1849Q956 1783 933.50 1728Q911 1673 870 1633.50Q829 1594 772 1572Q715 1550 646 1550Q577 1550 520 1572Q463 1594 422 1633.50Q381 1673 358.50 1728Q336 1783 336 1849L455 1849M646-392Q621-392 599-382.50Q577-373 560.50-356.50Q544-340 534.50-318Q525-296 525-271Q525-246 534.50-224Q544-202 560.50-185.50Q577-169 599-159.50Q621-150 646-150Q671-150 693-159.50Q715-169 731.50-185.50Q748-202 757.50-224Q767-246 767-271Q767-296 757.50-318Q748-340 731.50-356.50Q715-373 693-382.50Q671-392 646-392Z"  horiz-adv-x="1292" vert-adv-y="2048"  />

      
      <glyph glyph-name="uni0202" unicode="&#x0202;" d="M933 413L359 413L214 0L25 0L557 1443L735 1443L1267 0L1078 0L933 413M412 566L880 566L649 1224L643 1224L412 566M336 1550Q336 1616 358.50 1671Q381 1726 422 1765.50Q463 1805 520 1827Q577 1849 646 1849Q715 1849 772 1827Q829 1805 870 1765.50Q911 1726 933.50 1671Q956 1616 956 1550L837 1550Q837 1591 822.50 1627Q808 1663 782 1689.50Q756 1716 721 1731Q686 1746 646 1746Q605 1746 570.50 1731Q536 1716 510 1689.50Q484 1663 469.50 1627Q455 1591 455 1550L336 1550Z"  horiz-adv-x="1292" vert-adv-y="2048"  />

      
      <glyph glyph-name="uni01CD" unicode="&#x01CD;" d="M933 413L359 413L214 0L25 0L557 1443L735 1443L1267 0L1078 0L933 413M412 566L880 566L649 1224L643 1224L412 566M283 1849L451 1849L645 1648L647 1648L841 1849L1009 1849L717 1550L575 1550L283 1849Z"  horiz-adv-x="1292" vert-adv-y="2048"  />

      
      <glyph glyph-name="uni0226" unicode="&#x0226;" d="M933 413L359 413L214 0L25 0L557 1443L735 1443L1267 0L1078 0L933 413M412 566L880 566L649 1224L643 1224L412 566M646 1585Q621 1585 599 1594.50Q577 1604 560.50 1620.50Q544 1637 534.50 1659Q525 1681 525 1706Q525 1731 534.50 1753Q544 1775 560.50 1791.50Q577 1808 599 1817.50Q621 1827 646 1827Q671 1827 693 1817.50Q715 1808 731.50 1791.50Q748 1775 757.50 1753Q767 1731 767 1706Q767 1681 757.50 1659Q748 1637 731.50 1620.50Q715 1604 693 1594.50Q671 1585 646 1585Z"  horiz-adv-x="1292" vert-adv-y="2048"  />

      
      <glyph glyph-name="uni1EA0" unicode="&#x1EA0;" d="M933 413L359 413L214 0L25 0L557 1443L735 1443L1267 0L1078 0L933 413M412 566L880 566L649 1224L643 1224L412 566M646-392Q621-392 599-382.50Q577-373 560.50-356.50Q544-340 534.50-318Q525-296 525-271Q525-246 534.50-224Q544-202 560.50-185.50Q577-169 599-159.50Q621-150 646-150Q671-150 693-159.50Q715-169 731.50-185.50Q748-202 757.50-224Q767-246 767-271Q767-296 757.50-318Q748-340 731.50-356.50Q715-373 693-382.50Q671-392 646-392Z"  horiz-adv-x="1292" vert-adv-y="2048"  />

      
      <glyph glyph-name="uni1EA2" unicode="&#x1EA2;" d="M933 413L359 413L214 0L25 0L557 1443L735 1443L1267 0L1078 0L933 413M412 566L880 566L649 1224L643 1224L412 566M486 1869Q512 1880 543.50 1885.50Q575 1891 607 1891Q650 1891 685.50 1880Q721 1869 747 1848Q773 1827 787.50 1797.50Q802 1768 802 1731Q802 1701 790.50 1673Q779 1645 758 1621Q737 1597 708 1578Q679 1559 643 1547L583 1625Q624 1638 648.50 1665Q673 1692 673 1724Q673 1753 648.50 1772.50Q624 1792 586 1792Q561 1792 534.50 1787.50Q508 1783 486 1773L486 1869Z"  horiz-adv-x="1292" vert-adv-y="2048"  />

      
      <glyph glyph-name="uni0200" unicode="&#x0200;" d="M933 413L359 413L214 0L25 0L557 1443L735 1443L1267 0L1078 0L933 413M412 566L880 566L649 1224L643 1224L412 566M451 1849L639 1849L870 1550L732 1550L451 1849M141 1849L329 1849L560 1550L422 1550L141 1849Z"  horiz-adv-x="1292" vert-adv-y="2048"  />

      
      <glyph glyph-name="uni0100" unicode="&#x0100;" d="M933 413L359 413L214 0L25 0L557 1443L735 1443L1267 0L1078 0L933 413M412 566L880 566L649 1224L643 1224L412 566M963 1642L329 1642L329 1748L963 1748L963 1642Z"  horiz-adv-x="1292" vert-adv-y="2048"  />

      
      <glyph glyph-name="uni0104" unicode="&#x0104;" d="M1172-432Q1120-432 1076.50-415.50Q1033-399 1002-369Q971-339 953.50-298Q936-257 936-207Q936-140 970.50-82Q1005-24 1071 22L933 413L359 413L214 0L25 0L557 1443L735 1443L1262 14Q1182-21 1140-71Q1098-121 1098-180Q1098-233 1131-265.50Q1164-298 1218-298Q1247-298 1267-295L1267-421Q1246-427 1223.50-429.50Q1201-432 1172-432M412 566L880 566L654 1210L638 1210L412 566Z"  horiz-adv-x="1292" vert-adv-y="2048"  />

      
      <glyph glyph-name="uni42" unicode="&#x42;" d="M140 0L140 1443L705 1443Q798 1443 874 1417Q950 1391 1004.50 1344Q1059 1297 1089 1230.50Q1119 1164 1119 1083Q1119 1027 1099.50 974Q1080 921 1046.50 878.50Q1013 836 967.50 806.50Q922 777 870 768L870 760Q943 751 1002.50 721Q1062 691 1104 645Q1146 599 1169 538Q1192 477 1192 405Q1192 310 1159 234.50Q1126 159 1063 107Q1000 55 909 27.50Q818 0 703 0L140 0M320 821L608 821Q769 821 853 882.50Q937 944 937 1062Q937 1170 866.50 1227Q796 1284 664 1284L320 1284L320 821M676 159Q840 159 923.50 223.50Q1007 288 1007 414Q1007 540 920 603Q833 666 659 666L320 666L320 159L676 159Z"  horiz-adv-x="1256" vert-adv-y="2048"  />

      
      <glyph glyph-name="uni1E06" unicode="&#x1E06;" d="M140 0L140 1443L705 1443Q798 1443 874 1417Q950 1391 1004.50 1344Q1059 1297 1089 1230.50Q1119 1164 1119 1083Q1119 1027 1099.50 974Q1080 921 1046.50 878.50Q1013 836 967.50 806.50Q922 777 870 768L870 760Q943 751 1002.50 721Q1062 691 1104 645Q1146 599 1169 538Q1192 477 1192 405Q1192 310 1159 234.50Q1126 159 1063 107Q1000 55 909 27.50Q818 0 703 0L140 0M320 821L608 821Q769 821 853 882.50Q937 944 937 1062Q937 1170 866.50 1227Q796 1284 664 1284L320 1284L320 821M676 159Q840 159 923.50 223.50Q1007 288 1007 414Q1007 540 920 603Q833 666 659 666L320 666L320 159L676 159M878-326L244-326L244-220L878-220L878-326Z"  horiz-adv-x="1256" vert-adv-y="2048"  />

      
      <glyph glyph-name="uni1E04" unicode="&#x1E04;" d="M140 0L140 1443L705 1443Q798 1443 874 1417Q950 1391 1004.50 1344Q1059 1297 1089 1230.50Q1119 1164 1119 1083Q1119 1027 1099.50 974Q1080 921 1046.50 878.50Q1013 836 967.50 806.50Q922 777 870 768L870 760Q943 751 1002.50 721Q1062 691 1104 645Q1146 599 1169 538Q1192 477 1192 405Q1192 310 1159 234.50Q1126 159 1063 107Q1000 55 909 27.50Q818 0 703 0L140 0M320 821L608 821Q769 821 853 882.50Q937 944 937 1062Q937 1170 866.50 1227Q796 1284 664 1284L320 1284L320 821M676 159Q840 159 923.50 223.50Q1007 288 1007 414Q1007 540 920 603Q833 666 659 666L320 666L320 159L676 159M561-392Q536-392 514-382.50Q492-373 475.50-356.50Q459-340 449.50-318Q440-296 440-271Q440-246 449.50-224Q459-202 475.50-185.50Q492-169 514-159.50Q536-150 561-150Q586-150 608-159.50Q630-169 646.50-185.50Q663-202 672.50-224Q682-246 682-271Q682-296 672.50-318Q663-340 646.50-356.50Q630-373 608-382.50Q586-392 561-392Z"  horiz-adv-x="1256" vert-adv-y="2048"  />

      
      <glyph glyph-name="uni1E02" unicode="&#x1E02;" d="M140 0L140 1443L705 1443Q798 1443 874 1417Q950 1391 1004.50 1344Q1059 1297 1089 1230.50Q1119 1164 1119 1083Q1119 1027 1099.50 974Q1080 921 1046.50 878.50Q1013 836 967.50 806.50Q922 777 870 768L870 760Q943 751 1002.50 721Q1062 691 1104 645Q1146 599 1169 538Q1192 477 1192 405Q1192 310 1159 234.50Q1126 159 1063 107Q1000 55 909 27.50Q818 0 703 0L140 0M320 821L608 821Q769 821 853 882.50Q937 944 937 1062Q937 1170 866.50 1227Q796 1284 664 1284L320 1284L320 821M676 159Q840 159 923.50 223.50Q1007 288 1007 414Q1007 540 920 603Q833 666 659 666L320 666L320 159L676 159M561 1585Q536 1585 514 1594.50Q492 1604 475.50 1620.50Q459 1637 449.50 1659Q440 1681 440 1706Q440 1731 449.50 1753Q459 1775 475.50 1791.50Q492 1808 514 1817.50Q536 1827 561 1827Q586 1827 608 1817.50Q630 1808 646.50 1791.50Q663 1775 672.50 1753Q682 1731 682 1706Q682 1681 672.50 1659Q663 1637 646.50 1620.50Q630 1604 608 1594.50Q586 1585 561 1585Z"  horiz-adv-x="1256" vert-adv-y="2048"  />

      
      <glyph glyph-name="uni43" unicode="&#x43;" d="M734-24Q585-24 464.50 28.50Q344 81 259.50 178Q175 275 129.50 413Q84 551 84 722Q84 892 130 1029.50Q176 1167 261 1264.50Q346 1362 466 1414.50Q586 1467 734 1467Q852 1467 953.50 1432.50Q1055 1398 1134 1335.50Q1213 1273 1264.50 1184.50Q1316 1096 1333 988L1151 988Q1134 1059 1095.50 1116.50Q1057 1174 1002.50 1215Q948 1256 879.50 1278.50Q811 1301 734 1301Q628 1301 542 1260Q456 1219 395.50 1143Q335 1067 302 960.50Q269 854 269 722Q269 589 301.50 482Q334 375 395 299.50Q456 224 542 183Q628 142 735 142Q814 142 882 160.50Q950 179 1003 215Q1056 251 1093.50 302.50Q1131 354 1151 420L1333 420Q1283 205 1129 90.50Q975-24 734-24Z"  horiz-adv-x="1405" vert-adv-y="2048"  />

      
      <glyph glyph-name="uni0106" unicode="&#x0106;" d="M734-24Q585-24 464.50 28.50Q344 81 259.50 178Q175 275 129.50 413Q84 551 84 722Q84 892 130 1029.50Q176 1167 261 1264.50Q346 1362 466 1414.50Q586 1467 734 1467Q852 1467 953.50 1432.50Q1055 1398 1134 1335.50Q1213 1273 1264.50 1184.50Q1316 1096 1333 988L1151 988Q1134 1059 1095.50 1116.50Q1057 1174 1002.50 1215Q948 1256 879.50 1278.50Q811 1301 734 1301Q628 1301 542 1260Q456 1219 395.50 1143Q335 1067 302 960.50Q269 854 269 722Q269 589 301.50 482Q334 375 395 299.50Q456 224 542 183Q628 142 735 142Q814 142 882 160.50Q950 179 1003 215Q1056 251 1093.50 302.50Q1131 354 1151 420L1333 420Q1283 205 1129 90.50Q975-24 734-24M663 1552L894 1851L1092 1851L811 1552L663 1552Z"  horiz-adv-x="1405" vert-adv-y="2048"  />

      
      <glyph glyph-name="uni010C" unicode="&#x010C;" d="M734-24Q585-24 464.50 28.50Q344 81 259.50 178Q175 275 129.50 413Q84 551 84 722Q84 892 130 1029.50Q176 1167 261 1264.50Q346 1362 466 1414.50Q586 1467 734 1467Q852 1467 953.50 1432.50Q1055 1398 1134 1335.50Q1213 1273 1264.50 1184.50Q1316 1096 1333 988L1151 988Q1134 1059 1095.50 1116.50Q1057 1174 1002.50 1215Q948 1256 879.50 1278.50Q811 1301 734 1301Q628 1301 542 1260Q456 1219 395.50 1143Q335 1067 302 960.50Q269 854 269 722Q269 589 301.50 482Q334 375 395 299.50Q456 224 542 183Q628 142 735 142Q814 142 882 160.50Q950 179 1003 215Q1056 251 1093.50 302.50Q1131 354 1151 420L1333 420Q1283 205 1129 90.50Q975-24 734-24M371 1851L539 1851L733 1650L735 1650L929 1851L1097 1851L805 1552L663 1552L371 1851Z"  horiz-adv-x="1405" vert-adv-y="2048"  />

      
      <glyph glyph-name="uni0108" unicode="&#x0108;" d="M734-24Q585-24 464.50 28.50Q344 81 259.50 178Q175 275 129.50 413Q84 551 84 722Q84 892 130 1029.50Q176 1167 261 1264.50Q346 1362 466 1414.50Q586 1467 734 1467Q852 1467 953.50 1432.50Q1055 1398 1134 1335.50Q1213 1273 1264.50 1184.50Q1316 1096 1333 988L1151 988Q1134 1059 1095.50 1116.50Q1057 1174 1002.50 1215Q948 1256 879.50 1278.50Q811 1301 734 1301Q628 1301 542 1260Q456 1219 395.50 1143Q335 1067 302 960.50Q269 854 269 722Q269 589 301.50 482Q334 375 395 299.50Q456 224 542 183Q628 142 735 142Q814 142 882 160.50Q950 179 1003 215Q1056 251 1093.50 302.50Q1131 354 1151 420L1333 420Q1283 205 1129 90.50Q975-24 734-24M805 1851L1097 1552L929 1552L735 1753L733 1753L539 1552L371 1552L663 1851L805 1851Z"  horiz-adv-x="1405" vert-adv-y="2048"  />

      
      <glyph glyph-name="uni010A" unicode="&#x010A;" d="M734-24Q585-24 464.50 28.50Q344 81 259.50 178Q175 275 129.50 413Q84 551 84 722Q84 892 130 1029.50Q176 1167 261 1264.50Q346 1362 466 1414.50Q586 1467 734 1467Q852 1467 953.50 1432.50Q1055 1398 1134 1335.50Q1213 1273 1264.50 1184.50Q1316 1096 1333 988L1151 988Q1134 1059 1095.50 1116.50Q1057 1174 1002.50 1215Q948 1256 879.50 1278.50Q811 1301 734 1301Q628 1301 542 1260Q456 1219 395.50 1143Q335 1067 302 960.50Q269 854 269 722Q269 589 301.50 482Q334 375 395 299.50Q456 224 542 183Q628 142 735 142Q814 142 882 160.50Q950 179 1003 215Q1056 251 1093.50 302.50Q1131 354 1151 420L1333 420Q1283 205 1129 90.50Q975-24 734-24M734 1587Q709 1587 687 1596.50Q665 1606 648.50 1622.50Q632 1639 622.50 1661Q613 1683 613 1708Q613 1733 622.50 1755Q632 1777 648.50 1793.50Q665 1810 687 1819.50Q709 1829 734 1829Q759 1829 781 1819.50Q803 1810 819.50 1793.50Q836 1777 845.50 1755Q855 1733 855 1708Q855 1683 845.50 1661Q836 1639 819.50 1622.50Q803 1606 781 1596.50Q759 1587 734 1587Z"  horiz-adv-x="1405" vert-adv-y="2048"  />

      
      <glyph glyph-name="unic7" unicode="&#xc7;" d="M1151 988Q1134 1059 1095.50 1116.50Q1057 1174 1002.50 1215Q948 1256 879.50 1278.50Q811 1301 734 1301Q628 1301 542 1260Q456 1219 395.50 1143Q335 1067 302 960.50Q269 854 269 722Q269 589 301.50 482Q334 375 395 299.50Q456 224 542 183Q628 142 735 142Q814 142 882 160.50Q950 179 1003 215Q1056 251 1093.50 302.50Q1131 354 1151 420L1333 420Q1286 219 1148 105.50Q1010-8 794-22L750-142Q959-142 959-292Q959-330 942.50-362.50Q926-395 897-418.50Q868-442 828-455.50Q788-469 740-469Q698-470 662.50-466Q627-462 593-452L593-354Q600-357 614-359.50Q628-362 645-364.50Q662-367 680.50-368Q699-369 715-369Q774-369 804.50-350.50Q835-332 835-296Q835-261 800-245.50Q765-230 685-230L630-230L630-156L681-22Q543-13 432.50 43Q322 99 244.50 195Q167 291 125.50 424.50Q84 558 84 722Q84 892 130 1029.50Q176 1167 261 1264.50Q346 1362 466 1414.50Q586 1467 734 1467Q852 1467 953.50 1432.50Q1055 1398 1134 1335.50Q1213 1273 1264.50 1184.50Q1316 1096 1333 988L1151 988Z"  horiz-adv-x="1405" vert-adv-y="2048"  />

      
      <glyph glyph-name="uni1E08" unicode="&#x1E08;" d="M811 1552L663 1552L894 1851L1092 1851L811 1552M1151 988Q1134 1059 1095.50 1116.50Q1057 1174 1002.50 1215Q948 1256 879.50 1278.50Q811 1301 734 1301Q628 1301 542 1260Q456 1219 395.50 1143Q335 1067 302 960.50Q269 854 269 722Q269 589 301.50 482Q334 375 395 299.50Q456 224 542 183Q628 142 735 142Q814 142 882 160.50Q950 179 1003 215Q1056 251 1093.50 302.50Q1131 354 1151 420L1333 420Q1286 219 1148 105.50Q1010-8 794-22L750-142Q959-142 959-292Q959-330 942.50-362.50Q926-395 897-418.50Q868-442 828-455.50Q788-469 740-469Q698-470 662.50-466Q627-462 593-452L593-354Q600-357 614-359.50Q628-362 645-364.50Q662-367 680.50-368Q699-369 715-369Q774-369 804.50-350.50Q835-332 835-296Q835-261 800-245.50Q765-230 685-230L630-230L630-156L681-22Q543-13 432.50 43Q322 99 244.50 195Q167 291 125.50 424.50Q84 558 84 722Q84 892 130 1029.50Q176 1167 261 1264.50Q346 1362 466 1414.50Q586 1467 734 1467Q852 1467 953.50 1432.50Q1055 1398 1134 1335.50Q1213 1273 1264.50 1184.50Q1316 1096 1333 988L1151 988Z"  horiz-adv-x="1405" vert-adv-y="2048"  />

      
      <glyph glyph-name="uni44" unicode="&#x44;" d="M635 1443Q795 1443 921.50 1394Q1048 1345 1136 1252.50Q1224 1160 1270 1026Q1316 892 1316 722Q1316 551 1270 417Q1224 283 1136.50 190.50Q1049 98 922.50 49Q796 0 635 0L140 0L140 1443L635 1443M320 162L623 162Q746 162 840.50 199Q935 236 1000 307Q1065 378 1098.50 482Q1132 586 1132 720Q1132 855 1098.50 960Q1065 1065 1000.50 1136Q936 1207 841 1244Q746 1281 623 1281L320 1281L320 162Z"  horiz-adv-x="1399" vert-adv-y="2048"  />

      
      <glyph glyph-name="uni1E0A" unicode="&#x1E0A;" d="M635 1443Q795 1443 921.50 1394Q1048 1345 1136 1252.50Q1224 1160 1270 1026Q1316 892 1316 722Q1316 551 1270 417Q1224 283 1136.50 190.50Q1049 98 922.50 49Q796 0 635 0L140 0L140 1443L635 1443M320 162L623 162Q746 162 840.50 199Q935 236 1000 307Q1065 378 1098.50 482Q1132 586 1132 720Q1132 855 1098.50 960Q1065 1065 1000.50 1136Q936 1207 841 1244Q746 1281 623 1281L320 1281L320 162M550 1585Q525 1585 503 1594.50Q481 1604 464.50 1620.50Q448 1637 438.50 1659Q429 1681 429 1706Q429 1731 438.50 1753Q448 1775 464.50 1791.50Q481 1808 503 1817.50Q525 1827 550 1827Q575 1827 597 1817.50Q619 1808 635.50 1791.50Q652 1775 661.50 1753Q671 1731 671 1706Q671 1681 661.50 1659Q652 1637 635.50 1620.50Q619 1604 597 1594.50Q575 1585 550 1585Z"  horiz-adv-x="1399" vert-adv-y="2048"  />

      
      <glyph glyph-name="uni1E12" unicode="&#x1E12;" d="M635 1443Q795 1443 921.50 1394Q1048 1345 1136 1252.50Q1224 1160 1270 1026Q1316 892 1316 722Q1316 551 1270 417Q1224 283 1136.50 190.50Q1049 98 922.50 49Q796 0 635 0L140 0L140 1443L635 1443M320 162L623 162Q746 162 840.50 199Q935 236 1000 307Q1065 378 1098.50 482Q1132 586 1132 720Q1132 855 1098.50 960Q1065 1065 1000.50 1136Q936 1207 841 1244Q746 1281 623 1281L320 1281L320 162M621-166L913-465L745-465L551-264L549-264L355-465L187-465L479-166L621-166Z"  horiz-adv-x="1399" vert-adv-y="2048"  />

      
      <glyph glyph-name="uni1E10" unicode="&#x1E10;" d="M635 1443Q795 1443 921.50 1394Q1048 1345 1136 1252.50Q1224 1160 1270 1026Q1316 892 1316 722Q1316 551 1270 417Q1224 283 1136.50 190.50Q1049 98 922.50 49Q796 0 635 0L140 0L140 1443L635 1443M320 162L623 162Q746 162 840.50 199Q935 236 1000 307Q1065 378 1098.50 482Q1132 586 1132 720Q1132 855 1098.50 960Q1065 1065 1000.50 1136Q936 1207 841 1244Q746 1281 623 1281L320 1281L320 162M409-541L500-172L653-172L535-541L409-541Z"  horiz-adv-x="1399" vert-adv-y="2048"  />

      
      <glyph glyph-name="uni1E0E" unicode="&#x1E0E;" d="M635 1443Q795 1443 921.50 1394Q1048 1345 1136 1252.50Q1224 1160 1270 1026Q1316 892 1316 722Q1316 551 1270 417Q1224 283 1136.50 190.50Q1049 98 922.50 49Q796 0 635 0L140 0L140 1443L635 1443M320 162L623 162Q746 162 840.50 199Q935 236 1000 307Q1065 378 1098.50 482Q1132 586 1132 720Q1132 855 1098.50 960Q1065 1065 1000.50 1136Q936 1207 841 1244Q746 1281 623 1281L320 1281L320 162M867-326L233-326L233-220L867-220L867-326Z"  horiz-adv-x="1399" vert-adv-y="2048"  />

      
      <glyph glyph-name="uni010E" unicode="&#x010E;" d="M635 1443Q795 1443 921.50 1394Q1048 1345 1136 1252.50Q1224 1160 1270 1026Q1316 892 1316 722Q1316 551 1270 417Q1224 283 1136.50 190.50Q1049 98 922.50 49Q796 0 635 0L140 0L140 1443L635 1443M320 162L623 162Q746 162 840.50 199Q935 236 1000 307Q1065 378 1098.50 482Q1132 586 1132 720Q1132 855 1098.50 960Q1065 1065 1000.50 1136Q936 1207 841 1244Q746 1281 623 1281L320 1281L320 162M187 1849L355 1849L549 1648L551 1648L745 1849L913 1849L621 1550L479 1550L187 1849Z"  horiz-adv-x="1399" vert-adv-y="2048"  />

      
      <glyph glyph-name="uni1E0C" unicode="&#x1E0C;" d="M635 1443Q795 1443 921.50 1394Q1048 1345 1136 1252.50Q1224 1160 1270 1026Q1316 892 1316 722Q1316 551 1270 417Q1224 283 1136.50 190.50Q1049 98 922.50 49Q796 0 635 0L140 0L140 1443L635 1443M320 162L623 162Q746 162 840.50 199Q935 236 1000 307Q1065 378 1098.50 482Q1132 586 1132 720Q1132 855 1098.50 960Q1065 1065 1000.50 1136Q936 1207 841 1244Q746 1281 623 1281L320 1281L320 162M550-392Q525-392 503-382.50Q481-373 464.50-356.50Q448-340 438.50-318Q429-296 429-271Q429-246 438.50-224Q448-202 464.50-185.50Q481-169 503-159.50Q525-150 550-150Q575-150 597-159.50Q619-169 635.50-185.50Q652-202 661.50-224Q671-246 671-271Q671-296 661.50-318Q652-340 635.50-356.50Q619-373 597-382.50Q575-392 550-392Z"  horiz-adv-x="1399" vert-adv-y="2048"  />

      
      <glyph glyph-name="uni0110" unicode="&#x0110;" d="M702 162Q825 162 919.50 199Q1014 236 1079 307Q1144 378 1177.50 482Q1211 586 1211 720Q1211 855 1177.50 960Q1144 1065 1079.50 1136Q1015 1207 920 1244Q825 1281 702 1281L399 1281L399 826L676 826L676 663L399 663L399 162L702 162M714 1443Q874 1443 1000.50 1394Q1127 1345 1215 1252.50Q1303 1160 1349 1026Q1395 892 1395 722Q1395 551 1349 417Q1303 283 1215.50 190.50Q1128 98 1001.50 49Q875 0 714 0L219 0L219 663L90 663L90 826L219 826L219 1443L714 1443Z"  horiz-adv-x="1531" vert-adv-y="2048"  />

      
      <glyph glyph-name="uni45" unicode="&#x45;" d="M1034 0L140 0L140 1443L1034 1443L1034 1281L320 1281L320 818L997 818L997 658L320 658L320 162L1034 162L1034 0Z"  horiz-adv-x="1131" vert-adv-y="2048"  />

      
      <glyph glyph-name="unic8" unicode="&#xc8;" d="M1034 0L140 0L140 1443L1034 1443L1034 1281L320 1281L320 818L997 818L997 658L320 658L320 162L1034 162L1034 0M232 1849L430 1849L661 1550L513 1550L232 1849Z"  horiz-adv-x="1131" vert-adv-y="2048"  />

      
      <glyph glyph-name="uni0204" unicode="&#x0204;" d="M1034 0L140 0L140 1443L1034 1443L1034 1281L320 1281L320 818L997 818L997 658L320 658L320 162L1034 162L1034 0M392 1849L580 1849L811 1550L673 1550L392 1849M82 1849L270 1849L501 1550L363 1550L82 1849Z"  horiz-adv-x="1131" vert-adv-y="2048"  />

      
      <glyph glyph-name="unic9" unicode="&#xc9;" d="M1034 0L140 0L140 1443L1034 1443L1034 1281L320 1281L320 818L997 818L997 658L320 658L320 162L1034 162L1034 0M516 1550L747 1849L945 1849L664 1550L516 1550Z"  horiz-adv-x="1131" vert-adv-y="2048"  />

      
      <glyph glyph-name="unica" unicode="&#xca;" d="M1034 0L140 0L140 1443L1034 1443L1034 1281L320 1281L320 818L997 818L997 658L320 658L320 162L1034 162L1034 0M658 1849L950 1550L782 1550L588 1751L586 1751L392 1550L224 1550L516 1849L658 1849Z"  horiz-adv-x="1131" vert-adv-y="2048"  />

      
      <glyph glyph-name="uni1EC2" unicode="&#x1EC2;" d="M1034 0L140 0L140 1443L1034 1443L1034 1281L320 1281L320 818L997 818L997 658L320 658L320 162L1034 162L1034 0M667 1798L933 1575L750 1575L597 1708L582 1708L428 1575L245 1575L512 1798L667 1798M711 2031Q733 2042 761.50 2047.50Q790 2053 816 2053Q853 2053 884.50 2042.50Q916 2032 938 2013Q960 1994 972.50 1967Q985 1940 985 1907Q985 1853 954.50 1810Q924 1767 871 1750L794 1811Q829 1823 850.50 1847.50Q872 1872 872 1901Q872 1927 850.50 1944.50Q829 1962 797 1962Q745 1962 711 1945L711 2031Z"  horiz-adv-x="1131" vert-adv-y="2048"  />

      
      <glyph glyph-name="uni1EC0" unicode="&#x1EC0;" d="M1034 0L140 0L140 1443L1034 1443L1034 1281L320 1281L320 818L997 818L997 658L320 658L320 162L1034 162L1034 0M664 1798L931 1575L748 1575L594 1708L580 1708L426 1575L243 1575L510 1798L664 1798M762 1849L526 2053L713 2053L898 1849L762 1849Z"  horiz-adv-x="1131" vert-adv-y="2048"  />

      
      <glyph glyph-name="uni1EC4" unicode="&#x1EC4;" d="M1034 0L140 0L140 1443L1034 1443L1034 1281L320 1281L320 818L997 818L997 658L320 658L320 162L1034 162L1034 0M708 1832Q674 1832 649.50 1842Q625 1852 606.50 1867Q588 1882 574 1900Q560 1918 546 1933Q532 1948 516 1958Q500 1968 478 1968Q440 1968 423 1940.50Q406 1913 403 1849L294 1849Q294 1953 342.50 2010.50Q391 2068 477 2068Q513 2068 539 2058Q565 2048 584.50 2033.50Q604 2019 618.50 2001.50Q633 1984 646.50 1969.50Q660 1955 674 1945Q688 1935 706 1935Q742 1935 759.50 1963Q777 1991 780 2053L888 2053Q888 2003 875 1962Q862 1921 838.50 1892Q815 1863 781.50 1847.50Q748 1832 708 1832M664 1779L931 1575L748 1575L594 1690L580 1690L426 1575L243 1575L510 1779L664 1779Z"  horiz-adv-x="1131" vert-adv-y="2048"  />

      
      <glyph glyph-name="uni1EC6" unicode="&#x1EC6;" d="M1034 0L140 0L140 1443L1034 1443L1034 1281L320 1281L320 818L997 818L997 658L320 658L320 162L1034 162L1034 0M658 1849L950 1550L782 1550L588 1751L586 1751L392 1550L224 1550L516 1849L658 1849M587-392Q562-392 540-382.50Q518-373 501.50-356.50Q485-340 475.50-318Q466-296 466-271Q466-246 475.50-224Q485-202 501.50-185.50Q518-169 540-159.50Q562-150 587-150Q612-150 634-159.50Q656-169 672.50-185.50Q689-202 698.50-224Q708-246 708-271Q708-296 698.50-318Q689-340 672.50-356.50Q656-373 634-382.50Q612-392 587-392Z"  horiz-adv-x="1131" vert-adv-y="2048"  />

      
      <glyph glyph-name="uni1EBE" unicode="&#x1EBE;" d="M1034 0L140 0L140 1443L1034 1443L1034 1281L320 1281L320 818L997 818L997 658L320 658L320 162L1034 162L1034 0M668 1798L934 1575L751 1575L598 1708L583 1708L429 1575L246 1575L513 1798L668 1798M901 2053L1088 2053L852 1849L716 1849L901 2053Z"  horiz-adv-x="1131" vert-adv-y="2048"  />

      
      <glyph glyph-name="unicb" unicode="&#xcb;" d="M1034 0L140 0L140 1443L1034 1443L1034 1281L320 1281L320 818L997 818L997 658L320 658L320 162L1034 162L1034 0M390 1585Q367 1585 346.50 1594Q326 1603 311 1618Q296 1633 287 1653.50Q278 1674 278 1697Q278 1720 287 1740.50Q296 1761 311 1776Q326 1791 346.50 1800Q367 1809 390 1809Q413 1809 433.50 1800Q454 1791 469 1776Q484 1761 493 1740.50Q502 1720 502 1697Q502 1674 493 1653.50Q484 1633 469 1618Q454 1603 433.50 1594Q413 1585 390 1585M784 1585Q761 1585 740.50 1594Q720 1603 705 1618Q690 1633 681 1653.50Q672 1674 672 1697Q672 1720 681 1740.50Q690 1761 705 1776Q720 1791 740.50 1800Q761 1809 784 1809Q807 1809 827.50 1800Q848 1791 863 1776Q878 1761 887 1740.50Q896 1720 896 1697Q896 1674 887 1653.50Q878 1633 863 1618Q848 1603 827.50 1594Q807 1585 784 1585Z"  horiz-adv-x="1131" vert-adv-y="2048"  />

      
      <glyph glyph-name="uni1EB8" unicode="&#x1EB8;" d="M1034 0L140 0L140 1443L1034 1443L1034 1281L320 1281L320 818L997 818L997 658L320 658L320 162L1034 162L1034 0M587-392Q562-392 540-382.50Q518-373 501.50-356.50Q485-340 475.50-318Q466-296 466-271Q466-246 475.50-224Q485-202 501.50-185.50Q518-169 540-159.50Q562-150 587-150Q612-150 634-159.50Q656-169 672.50-185.50Q689-202 698.50-224Q708-246 708-271Q708-296 698.50-318Q689-340 672.50-356.50Q656-373 634-382.50Q612-392 587-392Z"  horiz-adv-x="1131" vert-adv-y="2048"  />

      
      <glyph glyph-name="uni0206" unicode="&#x0206;" d="M1034 0L140 0L140 1443L1034 1443L1034 1281L320 1281L320 818L997 818L997 658L320 658L320 162L1034 162L1034 0M277 1550Q277 1616 299.50 1671Q322 1726 363 1765.50Q404 1805 461 1827Q518 1849 587 1849Q656 1849 713 1827Q770 1805 811 1765.50Q852 1726 874.50 1671Q897 1616 897 1550L778 1550Q778 1591 763.50 1627Q749 1663 723 1689.50Q697 1716 662 1731Q627 1746 587 1746Q546 1746 511.50 1731Q477 1716 451 1689.50Q425 1663 410.50 1627Q396 1591 396 1550L277 1550Z"  horiz-adv-x="1131" vert-adv-y="2048"  />

      
      <glyph glyph-name="uni1EBA" unicode="&#x1EBA;" d="M1034 0L140 0L140 1443L1034 1443L1034 1281L320 1281L320 818L997 818L997 658L320 658L320 162L1034 162L1034 0M427 1869Q453 1880 484.50 1885.50Q516 1891 548 1891Q591 1891 626.50 1880Q662 1869 688 1848Q714 1827 728.50 1797.50Q743 1768 743 1731Q743 1701 731.50 1673Q720 1645 699 1621Q678 1597 649 1578Q620 1559 584 1547L524 1625Q565 1638 589.50 1665Q614 1692 614 1724Q614 1753 589.50 1772.50Q565 1792 527 1792Q502 1792 475.50 1787.50Q449 1783 427 1773L427 1869Z"  horiz-adv-x="1131" vert-adv-y="2048"  />

      
      <glyph glyph-name="uni011A" unicode="&#x011A;" d="M1034 0L140 0L140 1443L1034 1443L1034 1281L320 1281L320 818L997 818L997 658L320 658L320 162L1034 162L1034 0M224 1849L392 1849L586 1648L588 1648L782 1849L950 1849L658 1550L516 1550L224 1849Z"  horiz-adv-x="1131" vert-adv-y="2048"  />

      
      <glyph glyph-name="uni0112" unicode="&#x0112;" d="M1034 0L140 0L140 1443L1034 1443L1034 1281L320 1281L320 818L997 818L997 658L320 658L320 162L1034 162L1034 0M904 1642L270 1642L270 1748L904 1748L904 1642Z"  horiz-adv-x="1131" vert-adv-y="2048"  />

      
      <glyph glyph-name="uni1E14" unicode="&#x1E14;" d="M1034 0L140 0L140 1443L1034 1443L1034 1281L320 1281L320 818L997 818L997 658L320 658L320 162L1034 162L1034 0M270 1748L904 1748L904 1642L270 1642L270 1748M519 1849L283 2053L470 2053L655 1849L519 1849Z"  horiz-adv-x="1131" vert-adv-y="2048"  />

      
      <glyph glyph-name="uni1E16" unicode="&#x1E16;" d="M1034 0L140 0L140 1443L1034 1443L1034 1281L320 1281L320 818L997 818L997 658L320 658L320 162L1034 162L1034 0M270 1642L270 1748L904 1748L904 1642L270 1642M704 2053L891 2053L655 1849L519 1849L704 2053Z"  horiz-adv-x="1131" vert-adv-y="2048"  />

      
      <glyph glyph-name="uni1EBC" unicode="&#x1EBC;" d="M1034 0L140 0L140 1443L1034 1443L1034 1281L320 1281L320 818L997 818L997 658L320 658L320 162L1034 162L1034 0M715 1535Q683 1535 657.50 1546.50Q632 1558 611 1574.50Q590 1591 572 1611Q554 1631 537 1647.50Q520 1664 503 1675.50Q486 1687 466 1687Q433 1687 415 1651.50Q397 1616 397 1550L283 1550Q283 1668 329.50 1734Q376 1800 461 1800Q495 1800 522.50 1788.50Q550 1777 572 1760.50Q594 1744 612 1724Q630 1704 647 1687.50Q664 1671 680 1659.50Q696 1648 715 1648Q777 1648 777 1786L891 1786Q891 1729 878.50 1682.50Q866 1636 843 1603Q820 1570 787.50 1552.50Q755 1535 715 1535Z"  horiz-adv-x="1131" vert-adv-y="2048"  />

      
      <glyph glyph-name="uni1E18" unicode="&#x1E18;" d="M1034 0L140 0L140 1443L1034 1443L1034 1281L320 1281L320 818L997 818L997 658L320 658L320 162L1034 162L1034 0M658-166L950-465L782-465L588-264L586-264L392-465L224-465L516-166L658-166Z"  horiz-adv-x="1131" vert-adv-y="2048"  />

      
      <glyph glyph-name="uni0114" unicode="&#x0114;" d="M1034 0L140 0L140 1443L1034 1443L1034 1281L320 1281L320 818L997 818L997 658L320 658L320 162L1034 162L1034 0M396 1849Q396 1808 410.50 1772Q425 1736 451 1709.50Q477 1683 511.50 1668Q546 1653 587 1653Q627 1653 662 1668Q697 1683 723 1709.50Q749 1736 763.50 1772Q778 1808 778 1849L897 1849Q897 1783 874.50 1728Q852 1673 811 1633.50Q770 1594 713 1572Q656 1550 587 1550Q518 1550 461 1572Q404 1594 363 1633.50Q322 1673 299.50 1728Q277 1783 277 1849L396 1849Z"  horiz-adv-x="1131" vert-adv-y="2048"  />

      
      <glyph glyph-name="uni1E1A" unicode="&#x1E1A;" d="M1034 0L140 0L140 1443L1034 1443L1034 1281L320 1281L320 818L997 818L997 658L320 658L320 162L1034 162L1034 0M715-415Q683-415 657.50-403.50Q632-392 611-375.50Q590-359 572-339Q554-319 537-302.50Q520-286 503-274.50Q486-263 466-263Q433-263 415-298.50Q397-334 397-400L283-400Q283-282 329.50-216Q376-150 461-150Q495-150 522.50-161.50Q550-173 572-189.50Q594-206 612-226Q630-246 647-262.50Q664-279 680-290.50Q696-302 715-302Q777-302 777-164L891-164Q891-221 878.50-267.50Q866-314 843-347Q820-380 787.50-397.50Q755-415 715-415Z"  horiz-adv-x="1131" vert-adv-y="2048"  />

      
      <glyph glyph-name="uni0116" unicode="&#x0116;" d="M1034 0L140 0L140 1443L1034 1443L1034 1281L320 1281L320 818L997 818L997 658L320 658L320 162L1034 162L1034 0M587 1585Q562 1585 540 1594.50Q518 1604 501.50 1620.50Q485 1637 475.50 1659Q466 1681 466 1706Q466 1731 475.50 1753Q485 1775 501.50 1791.50Q518 1808 540 1817.50Q562 1827 587 1827Q612 1827 634 1817.50Q656 1808 672.50 1791.50Q689 1775 698.50 1753Q708 1731 708 1706Q708 1681 698.50 1659Q689 1637 672.50 1620.50Q656 1604 634 1594.50Q612 1585 587 1585Z"  horiz-adv-x="1131" vert-adv-y="2048"  />

      
      <glyph glyph-name="uni0228" unicode="&#x0228;" d="M320 1281L320 818L997 818L997 658L320 658L320 162L1034 162L1034 0L655 0L603-142Q812-142 812-292Q812-330 795.50-362.50Q779-395 750-418.50Q721-442 681-455.50Q641-469 593-469Q551-470 515.50-466Q480-462 446-452L446-354Q453-357 467-359.50Q481-362 498-364.50Q515-367 533.50-368Q552-369 568-369Q627-369 657.50-350.50Q688-332 688-296Q688-261 653-245.50Q618-230 538-230L483-230L483-156L543 0L140 0L140 1443L1034 1443L1034 1281L320 1281Z"  horiz-adv-x="1131" vert-adv-y="2048"  />

      
      <glyph glyph-name="uni1E1C" unicode="&#x1E1C;" d="M897 1849Q897 1783 874.50 1728Q852 1673 811 1633.50Q770 1594 713 1572Q656 1550 587 1550Q518 1550 461 1572Q404 1594 363 1633.50Q322 1673 299.50 1728Q277 1783 277 1849L396 1849Q396 1808 410.50 1772Q425 1736 451 1709.50Q477 1683 511.50 1668Q546 1653 587 1653Q627 1653 662 1668Q697 1683 723 1709.50Q749 1736 763.50 1772Q778 1808 778 1849L897 1849M320 1281L320 818L997 818L997 658L320 658L320 162L1034 162L1034 0L655 0L603-142Q812-142 812-292Q812-330 795.50-362.50Q779-395 750-418.50Q721-442 681-455.50Q641-469 593-469Q551-470 515.50-466Q480-462 446-452L446-354Q453-357 467-359.50Q481-362 498-364.50Q515-367 533.50-368Q552-369 568-369Q627-369 657.50-350.50Q688-332 688-296Q688-261 653-245.50Q618-230 538-230L483-230L483-156L543 0L140 0L140 1443L1034 1443L1034 1281L320 1281Z"  horiz-adv-x="1131" vert-adv-y="2048"  />

      
      <glyph glyph-name="uni0118" unicode="&#x0118;" d="M140 0L140 1443L1034 1443L1034 1281L320 1281L320 818L997 818L997 658L320 658L320 162L1034 162L1034 38Q837-51 837-186Q837-237 870.50-267.50Q904-298 959-298Q1010-298 1034-289L1034-412Q1019-421 985.50-426.50Q952-432 913-432Q858-432 813.50-416.50Q769-401 737.50-373Q706-345 689-305.50Q672-266 672-218Q672-95 794 0L140 0Z"  horiz-adv-x="1131" vert-adv-y="2048"  />

      
      <glyph glyph-name="uni46" unicode="&#x46;" d="M140 0L140 1443L1016 1443L1016 1281L320 1281L320 785L959 785L959 625L320 625L320 0L140 0Z"  horiz-adv-x="1081" vert-adv-y="2048"  />

      
      <glyph glyph-name="uni1E1E" unicode="&#x1E1E;" d="M140 0L140 1443L1016 1443L1016 1281L320 1281L320 785L959 785L959 625L320 625L320 0L140 0M578 1585Q553 1585 531 1594.50Q509 1604 492.50 1620.50Q476 1637 466.50 1659Q457 1681 457 1706Q457 1731 466.50 1753Q476 1775 492.50 1791.50Q509 1808 531 1817.50Q553 1827 578 1827Q603 1827 625 1817.50Q647 1808 663.50 1791.50Q680 1775 689.50 1753Q699 1731 699 1706Q699 1681 689.50 1659Q680 1637 663.50 1620.50Q647 1604 625 1594.50Q603 1585 578 1585Z"  horiz-adv-x="1081" vert-adv-y="2048"  />

      
      <glyph glyph-name="uni47" unicode="&#x47;" d="M1357 597Q1357 451 1315.50 335.50Q1274 220 1195.50 140Q1117 60 1003 18Q889-24 745-24Q594-24 472 29Q350 82 263.50 180.50Q177 279 130.50 418Q84 557 84 729Q84 898 130.50 1034.50Q177 1171 263 1267Q349 1363 471 1415Q593 1467 745 1467Q862 1467 963 1433.50Q1064 1400 1143 1338.50Q1222 1277 1275 1190Q1328 1103 1348 995L1159 995Q1136 1068 1097.50 1125Q1059 1182 1006 1221Q953 1260 887 1280.50Q821 1301 745 1301Q634 1301 545.50 1262Q457 1223 395.50 1149.50Q334 1076 301.50 970Q269 864 269 730Q269 594 302 485Q335 376 396.50 300Q458 224 546.50 183Q635 142 745 142Q841 142 920.50 171.50Q1000 201 1057 255Q1114 309 1145.50 384Q1177 459 1177 550L1177 576L770 576L770 734L1357 734L1357 597L1357 597Z"  horiz-adv-x="1447" vert-adv-y="2048"  />

      
      <glyph glyph-name="uni01F4" unicode="&#x01F4;" d="M1357 597Q1357 451 1315.50 335.50Q1274 220 1195.50 140Q1117 60 1003 18Q889-24 745-24Q594-24 472 29Q350 82 263.50 180.50Q177 279 130.50 418Q84 557 84 729Q84 898 130.50 1034.50Q177 1171 263 1267Q349 1363 471 1415Q593 1467 745 1467Q862 1467 963 1433.50Q1064 1400 1143 1338.50Q1222 1277 1275 1190Q1328 1103 1348 995L1159 995Q1136 1068 1097.50 1125Q1059 1182 1006 1221Q953 1260 887 1280.50Q821 1301 745 1301Q634 1301 545.50 1262Q457 1223 395.50 1149.50Q334 1076 301.50 970Q269 864 269 730Q269 594 302 485Q335 376 396.50 300Q458 224 546.50 183Q635 142 745 142Q841 142 920.50 171.50Q1000 201 1057 255Q1114 309 1145.50 384Q1177 459 1177 550L1177 576L770 576L770 734L1357 734L1357 597M674 1550L905 1849L1103 1849L822 1550L674 1550Z"  horiz-adv-x="1447" vert-adv-y="2048"  />

      
      <glyph glyph-name="uni01E6" unicode="&#x01E6;" d="M1357 597Q1357 451 1315.50 335.50Q1274 220 1195.50 140Q1117 60 1003 18Q889-24 745-24Q594-24 472 29Q350 82 263.50 180.50Q177 279 130.50 418Q84 557 84 729Q84 898 130.50 1034.50Q177 1171 263 1267Q349 1363 471 1415Q593 1467 745 1467Q862 1467 963 1433.50Q1064 1400 1143 1338.50Q1222 1277 1275 1190Q1328 1103 1348 995L1159 995Q1136 1068 1097.50 1125Q1059 1182 1006 1221Q953 1260 887 1280.50Q821 1301 745 1301Q634 1301 545.50 1262Q457 1223 395.50 1149.50Q334 1076 301.50 970Q269 864 269 730Q269 594 302 485Q335 376 396.50 300Q458 224 546.50 183Q635 142 745 142Q841 142 920.50 171.50Q1000 201 1057 255Q1114 309 1145.50 384Q1177 459 1177 550L1177 576L770 576L770 734L1357 734L1357 597M382 1849L550 1849L744 1648L746 1648L940 1849L1108 1849L816 1550L674 1550L382 1849Z"  horiz-adv-x="1447" vert-adv-y="2048"  />

      
      <glyph glyph-name="uni011C" unicode="&#x011C;" d="M1357 597Q1357 451 1315.50 335.50Q1274 220 1195.50 140Q1117 60 1003 18Q889-24 745-24Q594-24 472 29Q350 82 263.50 180.50Q177 279 130.50 418Q84 557 84 729Q84 898 130.50 1034.50Q177 1171 263 1267Q349 1363 471 1415Q593 1467 745 1467Q862 1467 963 1433.50Q1064 1400 1143 1338.50Q1222 1277 1275 1190Q1328 1103 1348 995L1159 995Q1136 1068 1097.50 1125Q1059 1182 1006 1221Q953 1260 887 1280.50Q821 1301 745 1301Q634 1301 545.50 1262Q457 1223 395.50 1149.50Q334 1076 301.50 970Q269 864 269 730Q269 594 302 485Q335 376 396.50 300Q458 224 546.50 183Q635 142 745 142Q841 142 920.50 171.50Q1000 201 1057 255Q1114 309 1145.50 384Q1177 459 1177 550L1177 576L770 576L770 734L1357 734L1357 597M816 1849L1108 1550L940 1550L746 1751L744 1751L550 1550L382 1550L674 1849L816 1849Z"  horiz-adv-x="1447" vert-adv-y="2048"  />

      
      <glyph glyph-name="uni011E" unicode="&#x011E;" d="M1357 597Q1357 451 1315.50 335.50Q1274 220 1195.50 140Q1117 60 1003 18Q889-24 745-24Q594-24 472 29Q350 82 263.50 180.50Q177 279 130.50 418Q84 557 84 729Q84 898 130.50 1034.50Q177 1171 263 1267Q349 1363 471 1415Q593 1467 745 1467Q862 1467 963 1433.50Q1064 1400 1143 1338.50Q1222 1277 1275 1190Q1328 1103 1348 995L1159 995Q1136 1068 1097.50 1125Q1059 1182 1006 1221Q953 1260 887 1280.50Q821 1301 745 1301Q634 1301 545.50 1262Q457 1223 395.50 1149.50Q334 1076 301.50 970Q269 864 269 730Q269 594 302 485Q335 376 396.50 300Q458 224 546.50 183Q635 142 745 142Q841 142 920.50 171.50Q1000 201 1057 255Q1114 309 1145.50 384Q1177 459 1177 550L1177 576L770 576L770 734L1357 734L1357 597M554 1849Q554 1808 568.50 1772Q583 1736 609 1709.50Q635 1683 669.50 1668Q704 1653 745 1653Q785 1653 820 1668Q855 1683 881 1709.50Q907 1736 921.50 1772Q936 1808 936 1849L1055 1849Q1055 1783 1032.50 1728Q1010 1673 969 1633.50Q928 1594 871 1572Q814 1550 745 1550Q676 1550 619 1572Q562 1594 521 1633.50Q480 1673 457.50 1728Q435 1783 435 1849L554 1849Z"  horiz-adv-x="1447" vert-adv-y="2048"  />

      
      <glyph glyph-name="uni1E20" unicode="&#x1E20;" d="M1357 597Q1357 451 1315.50 335.50Q1274 220 1195.50 140Q1117 60 1003 18Q889-24 745-24Q594-24 472 29Q350 82 263.50 180.50Q177 279 130.50 418Q84 557 84 729Q84 898 130.50 1034.50Q177 1171 263 1267Q349 1363 471 1415Q593 1467 745 1467Q862 1467 963 1433.50Q1064 1400 1143 1338.50Q1222 1277 1275 1190Q1328 1103 1348 995L1159 995Q1136 1068 1097.50 1125Q1059 1182 1006 1221Q953 1260 887 1280.50Q821 1301 745 1301Q634 1301 545.50 1262Q457 1223 395.50 1149.50Q334 1076 301.50 970Q269 864 269 730Q269 594 302 485Q335 376 396.50 300Q458 224 546.50 183Q635 142 745 142Q841 142 920.50 171.50Q1000 201 1057 255Q1114 309 1145.50 384Q1177 459 1177 550L1177 576L770 576L770 734L1357 734L1357 597M1062 1642L428 1642L428 1748L1062 1748L1062 1642Z"  horiz-adv-x="1447" vert-adv-y="2048"  />

      
      <glyph glyph-name="uni0120" unicode="&#x0120;" d="M1357 597Q1357 451 1315.50 335.50Q1274 220 1195.50 140Q1117 60 1003 18Q889-24 745-24Q594-24 472 29Q350 82 263.50 180.50Q177 279 130.50 418Q84 557 84 729Q84 898 130.50 1034.50Q177 1171 263 1267Q349 1363 471 1415Q593 1467 745 1467Q862 1467 963 1433.50Q1064 1400 1143 1338.50Q1222 1277 1275 1190Q1328 1103 1348 995L1159 995Q1136 1068 1097.50 1125Q1059 1182 1006 1221Q953 1260 887 1280.50Q821 1301 745 1301Q634 1301 545.50 1262Q457 1223 395.50 1149.50Q334 1076 301.50 970Q269 864 269 730Q269 594 302 485Q335 376 396.50 300Q458 224 546.50 183Q635 142 745 142Q841 142 920.50 171.50Q1000 201 1057 255Q1114 309 1145.50 384Q1177 459 1177 550L1177 576L770 576L770 734L1357 734L1357 597M745 1585Q720 1585 698 1594.50Q676 1604 659.50 1620.50Q643 1637 633.50 1659Q624 1681 624 1706Q624 1731 633.50 1753Q643 1775 659.50 1791.50Q676 1808 698 1817.50Q720 1827 745 1827Q770 1827 792 1817.50Q814 1808 830.50 1791.50Q847 1775 856.50 1753Q866 1731 866 1706Q866 1681 856.50 1659Q847 1637 830.50 1620.50Q814 1604 792 1594.50Q770 1585 745 1585Z"  horiz-adv-x="1447" vert-adv-y="2048"  />

      
      <glyph glyph-name="uni0122" unicode="&#x0122;" d="M1357 597Q1357 451 1315.50 335.50Q1274 220 1195.50 140Q1117 60 1003 18Q889-24 745-24Q594-24 472 29Q350 82 263.50 180.50Q177 279 130.50 418Q84 557 84 729Q84 898 130.50 1034.50Q177 1171 263 1267Q349 1363 471 1415Q593 1467 745 1467Q862 1467 963 1433.50Q1064 1400 1143 1338.50Q1222 1277 1275 1190Q1328 1103 1348 995L1159 995Q1136 1068 1097.50 1125Q1059 1182 1006 1221Q953 1260 887 1280.50Q821 1301 745 1301Q634 1301 545.50 1262Q457 1223 395.50 1149.50Q334 1076 301.50 970Q269 864 269 730Q269 594 302 485Q335 376 396.50 300Q458 224 546.50 183Q635 142 745 142Q841 142 920.50 171.50Q1000 201 1057 255Q1114 309 1145.50 384Q1177 459 1177 550L1177 576L770 576L770 734L1357 734L1357 597M604-541L695-172L848-172L730-541L604-541Z"  horiz-adv-x="1447" vert-adv-y="2048"  />

      
      <glyph glyph-name="uni48" unicode="&#x48;" d="M1112 0L1112 657L320 657L320 0L140 0L140 1443L320 1443L320 819L1112 819L1112 1443L1292 1443L1292 0L1112 0Z"  horiz-adv-x="1432" vert-adv-y="2048"  />

      
      <glyph glyph-name="uni1E26" unicode="&#x1E26;" d="M1112 0L1112 657L320 657L320 0L140 0L140 1443L320 1443L320 819L1112 819L1112 1443L1292 1443L1292 0L1112 0M519 1585Q496 1585 475.50 1594Q455 1603 440 1618Q425 1633 416 1653.50Q407 1674 407 1697Q407 1720 416 1740.50Q425 1761 440 1776Q455 1791 475.50 1800Q496 1809 519 1809Q542 1809 562.50 1800Q583 1791 598 1776Q613 1761 622 1740.50Q631 1720 631 1697Q631 1674 622 1653.50Q613 1633 598 1618Q583 1603 562.50 1594Q542 1585 519 1585M913 1585Q890 1585 869.50 1594Q849 1603 834 1618Q819 1633 810 1653.50Q801 1674 801 1697Q801 1720 810 1740.50Q819 1761 834 1776Q849 1791 869.50 1800Q890 1809 913 1809Q936 1809 956.50 1800Q977 1791 992 1776Q1007 1761 1016 1740.50Q1025 1720 1025 1697Q1025 1674 1016 1653.50Q1007 1633 992 1618Q977 1603 956.50 1594Q936 1585 913 1585Z"  horiz-adv-x="1432" vert-adv-y="2048"  />

      
      <glyph glyph-name="uni021E" unicode="&#x021E;" d="M1112 0L1112 657L320 657L320 0L140 0L140 1443L320 1443L320 819L1112 819L1112 1443L1292 1443L1292 0L1112 0M353 1849L521 1849L715 1648L717 1648L911 1849L1079 1849L787 1550L645 1550L353 1849Z"  horiz-adv-x="1432" vert-adv-y="2048"  />

      
      <glyph glyph-name="uni0124" unicode="&#x0124;" d="M1112 0L1112 657L320 657L320 0L140 0L140 1443L320 1443L320 819L1112 819L1112 1443L1292 1443L1292 0L1112 0M787 1849L1079 1550L911 1550L717 1751L715 1751L521 1550L353 1550L645 1849L787 1849Z"  horiz-adv-x="1432" vert-adv-y="2048"  />

      
      <glyph glyph-name="uni1E24" unicode="&#x1E24;" d="M1112 0L1112 657L320 657L320 0L140 0L140 1443L320 1443L320 819L1112 819L1112 1443L1292 1443L1292 0L1112 0M716-392Q691-392 669-382.50Q647-373 630.50-356.50Q614-340 604.50-318Q595-296 595-271Q595-246 604.50-224Q614-202 630.50-185.50Q647-169 669-159.50Q691-150 716-150Q741-150 763-159.50Q785-169 801.50-185.50Q818-202 827.50-224Q837-246 837-271Q837-296 827.50-318Q818-340 801.50-356.50Q785-373 763-382.50Q741-392 716-392Z"  horiz-adv-x="1432" vert-adv-y="2048"  />

      
      <glyph glyph-name="uni1E22" unicode="&#x1E22;" d="M1112 0L1112 657L320 657L320 0L140 0L140 1443L320 1443L320 819L1112 819L1112 1443L1292 1443L1292 0L1112 0M716 1585Q691 1585 669 1594.50Q647 1604 630.50 1620.50Q614 1637 604.50 1659Q595 1681 595 1706Q595 1731 604.50 1753Q614 1775 630.50 1791.50Q647 1808 669 1817.50Q691 1827 716 1827Q741 1827 763 1817.50Q785 1808 801.50 1791.50Q818 1775 827.50 1753Q837 1731 837 1706Q837 1681 827.50 1659Q818 1637 801.50 1620.50Q785 1604 763 1594.50Q741 1585 716 1585Z"  horiz-adv-x="1432" vert-adv-y="2048"  />

      
      <glyph glyph-name="uni1E2A" unicode="&#x1E2A;" d="M1112 0L1112 657L320 657L320 0L140 0L140 1443L320 1443L320 819L1112 819L1112 1443L1292 1443L1292 0L1112 0M525-196Q525-237 539.50-273Q554-309 580-335.50Q606-362 640.50-377Q675-392 716-392Q756-392 791-377Q826-362 852-335.50Q878-309 892.50-273Q907-237 907-196L1026-196Q1026-262 1003.50-317Q981-372 940-411.50Q899-451 842-473Q785-495 716-495Q647-495 590-473Q533-451 492-411.50Q451-372 428.50-317Q406-262 406-196L525-196Z"  horiz-adv-x="1432" vert-adv-y="2048"  />

      
      <glyph glyph-name="uni1E28" unicode="&#x1E28;" d="M1292 1443L1292 0L1112 0L1112 657L320 657L320 0L298 0L246-142Q455-142 455-292Q455-330 438.50-362.50Q422-395 393-418.50Q364-442 324-455.50Q284-469 236-469Q194-470 158.50-466Q123-462 89-452L89-354Q96-357 110-359.50Q124-362 141-364.50Q158-367 176.50-368Q195-369 211-369Q270-369 300.50-350.50Q331-332 331-296Q331-261 296-245.50Q261-230 181-230L126-230L126-156L186 0L140 0L140 1443L320 1443L320 819L1112 819L1112 1443L1292 1443Z"  horiz-adv-x="1432" vert-adv-y="2048"  />

      
      <glyph glyph-name="uni0126" unicode="&#x0126;" d="M1112 1075L320 1075L320 819L1112 819L1112 1075M1428 1075L1292 1075L1292 0L1112 0L1112 657L320 657L320 0L140 0L140 1075L5 1075L5 1218L140 1218L140 1443L320 1443L320 1218L1112 1218L1112 1443L1292 1443L1292 1218L1428 1218L1428 1075Z"  horiz-adv-x="1433" vert-adv-y="2048"  />

      
      <glyph glyph-name="uni49" unicode="&#x49;" d="M140 0L140 1443L320 1443L320 0L140 0Z"  horiz-adv-x="460" vert-adv-y="2048"  />

      
      <glyph glyph-name="uni0130" unicode="&#x0130;" d="M140 0L140 1443L320 1443L320 0L140 0M230 1585Q205 1585 183 1594.50Q161 1604 144.50 1620.50Q128 1637 118.50 1659Q109 1681 109 1706Q109 1731 118.50 1753Q128 1775 144.50 1791.50Q161 1808 183 1817.50Q205 1827 230 1827Q255 1827 277 1817.50Q299 1808 315.50 1791.50Q332 1775 341.50 1753Q351 1731 351 1706Q351 1681 341.50 1659Q332 1637 315.50 1620.50Q299 1604 277 1594.50Q255 1585 230 1585Z"  horiz-adv-x="460" vert-adv-y="2048"  />

      
      <glyph glyph-name="unicc" unicode="&#xcc;" d="M140 0L140 1443L320 1443L320 0L140 0M-125 1849L73 1849L304 1550L156 1550L-125 1849Z"  horiz-adv-x="460" vert-adv-y="2048"  />

      
      <glyph glyph-name="uni0208" unicode="&#x0208;" d="M140 0L140 1443L320 1443L320 0L140 0M35 1849L223 1849L454 1550L316 1550L35 1849M-275 1849L-87 1849L144 1550L6 1550L-275 1849Z"  horiz-adv-x="460" vert-adv-y="2048"  />

      
      <glyph glyph-name="unicd" unicode="&#xcd;" d="M140 0L140 1443L320 1443L320 0L140 0M159 1550L390 1849L588 1849L307 1550L159 1550Z"  horiz-adv-x="460" vert-adv-y="2048"  />

      
      <glyph glyph-name="unice" unicode="&#xce;" d="M140 0L140 1443L320 1443L320 0L140 0M301 1849L593 1550L425 1550L231 1751L229 1751L35 1550L-133 1550L159 1849L301 1849Z"  horiz-adv-x="460" vert-adv-y="2048"  />

      
      <glyph glyph-name="uni01CF" unicode="&#x01CF;" d="M140 0L140 1443L320 1443L320 0L140 0M-133 1849L35 1849L229 1648L231 1648L425 1849L593 1849L301 1550L159 1550L-133 1849Z"  horiz-adv-x="460" vert-adv-y="2048"  />

      
      <glyph glyph-name="unicf" unicode="&#xcf;" d="M140 0L140 1443L320 1443L320 0L140 0M33 1585Q10 1585-10.50 1594Q-31 1603-46 1618Q-61 1633-70 1653.50Q-79 1674-79 1697Q-79 1720-70 1740.50Q-61 1761-46 1776Q-31 1791-10.50 1800Q10 1809 33 1809Q56 1809 76.50 1800Q97 1791 112 1776Q127 1761 136 1740.50Q145 1720 145 1697Q145 1674 136 1653.50Q127 1633 112 1618Q97 1603 76.50 1594Q56 1585 33 1585M427 1585Q404 1585 383.50 1594Q363 1603 348 1618Q333 1633 324 1653.50Q315 1674 315 1697Q315 1720 324 1740.50Q333 1761 348 1776Q363 1791 383.50 1800Q404 1809 427 1809Q450 1809 470.50 1800Q491 1791 506 1776Q521 1761 530 1740.50Q539 1720 539 1697Q539 1674 530 1653.50Q521 1633 506 1618Q491 1603 470.50 1594Q450 1585 427 1585Z"  horiz-adv-x="460" vert-adv-y="2048"  />

      
      <glyph glyph-name="uni1E2E" unicode="&#x1E2E;" d="M140 0L140 1443L320 1443L320 0L140 0M347 2053L534 2053L298 1849L162 1849L347 2053M44 1592Q2 1592-26.50 1620.50Q-55 1649-55 1691Q-55 1711-47.50 1729Q-40 1747-26.50 1760.50Q-13 1774 5 1782Q23 1790 44 1790Q64 1790 81.50 1782Q99 1774 112.50 1760.50Q126 1747 134 1729Q142 1711 142 1691Q142 1670 134 1652Q126 1634 112.50 1620.50Q99 1607 81.50 1599.50Q64 1592 44 1592M416 1592Q396 1592 378.50 1599.50Q361 1607 347.50 1620.50Q334 1634 326 1652Q318 1670 318 1691Q318 1711 326 1729Q334 1747 347.50 1760.50Q361 1774 378.50 1782Q396 1790 416 1790Q437 1790 455 1782Q473 1774 486.50 1760.50Q500 1747 507.50 1729Q515 1711 515 1691Q515 1649 486.50 1620.50Q458 1592 416 1592Z"  horiz-adv-x="460" vert-adv-y="2048"  />

      
      <glyph glyph-name="uni012C" unicode="&#x012C;" d="M140 0L140 1443L320 1443L320 0L140 0M39 1849Q39 1808 53.50 1772Q68 1736 94 1709.50Q120 1683 154.50 1668Q189 1653 230 1653Q270 1653 305 1668Q340 1683 366 1709.50Q392 1736 406.50 1772Q421 1808 421 1849L540 1849Q540 1783 517.50 1728Q495 1673 454 1633.50Q413 1594 356 1572Q299 1550 230 1550Q161 1550 104 1572Q47 1594 6 1633.50Q-35 1673-57.50 1728Q-80 1783-80 1849L39 1849Z"  horiz-adv-x="460" vert-adv-y="2048"  />

      
      <glyph glyph-name="uni1ECA" unicode="&#x1ECA;" d="M140 0L140 1443L320 1443L320 0L140 0M230-392Q205-392 183-382.50Q161-373 144.50-356.50Q128-340 118.50-318Q109-296 109-271Q109-246 118.50-224Q128-202 144.50-185.50Q161-169 183-159.50Q205-150 230-150Q255-150 277-159.50Q299-169 315.50-185.50Q332-202 341.50-224Q351-246 351-271Q351-296 341.50-318Q332-340 315.50-356.50Q299-373 277-382.50Q255-392 230-392Z"  horiz-adv-x="460" vert-adv-y="2048"  />

      
      <glyph glyph-name="uni020A" unicode="&#x020A;" d="M140 0L140 1443L320 1443L320 0L140 0M-80 1550Q-80 1616-57.50 1671Q-35 1726 6 1765.50Q47 1805 104 1827Q161 1849 230 1849Q299 1849 356 1827Q413 1805 454 1765.50Q495 1726 517.50 1671Q540 1616 540 1550L421 1550Q421 1591 406.50 1627Q392 1663 366 1689.50Q340 1716 305 1731Q270 1746 230 1746Q189 1746 154.50 1731Q120 1716 94 1689.50Q68 1663 53.50 1627Q39 1591 39 1550L-80 1550Z"  horiz-adv-x="460" vert-adv-y="2048"  />

      
      <glyph glyph-name="uni012A" unicode="&#x012A;" d="M140 0L140 1443L320 1443L320 0L140 0M547 1642L-87 1642L-87 1748L547 1748L547 1642Z"  horiz-adv-x="460" vert-adv-y="2048"  />

      
      <glyph glyph-name="uni1E2C" unicode="&#x1E2C;" d="M140 0L140 1443L320 1443L320 0L140 0M358-415Q326-415 300.50-403.50Q275-392 254-375.50Q233-359 215-339Q197-319 180-302.50Q163-286 146-274.50Q129-263 109-263Q76-263 58-298.50Q40-334 40-400L-74-400Q-74-282-27.50-216Q19-150 104-150Q138-150 165.50-161.50Q193-173 215-189.50Q237-206 255-226Q273-246 290-262.50Q307-279 323-290.50Q339-302 358-302Q420-302 420-164L534-164Q534-221 521.50-267.50Q509-314 486-347Q463-380 430.50-397.50Q398-415 358-415Z"  horiz-adv-x="460" vert-adv-y="2048"  />

      
      <glyph glyph-name="uni1EC8" unicode="&#x1EC8;" d="M140 0L140 1443L320 1443L320 0L140 0M70 1869Q96 1880 127.50 1885.50Q159 1891 191 1891Q234 1891 269.50 1880Q305 1869 331 1848Q357 1827 371.50 1797.50Q386 1768 386 1731Q386 1701 374.50 1673Q363 1645 342 1621Q321 1597 292 1578Q263 1559 227 1547L167 1625Q208 1638 232.50 1665Q257 1692 257 1724Q257 1753 232.50 1772.50Q208 1792 170 1792Q145 1792 118.50 1787.50Q92 1783 70 1773L70 1869Z"  horiz-adv-x="460" vert-adv-y="2048"  />

      
      <glyph glyph-name="uni0128" unicode="&#x0128;" d="M140 0L140 1443L320 1443L320 0L140 0M358 1535Q326 1535 300.50 1546.50Q275 1558 254 1574.50Q233 1591 215 1611Q197 1631 180 1647.50Q163 1664 146 1675.50Q129 1687 109 1687Q76 1687 58 1651.50Q40 1616 40 1550L-74 1550Q-74 1668-27.50 1734Q19 1800 104 1800Q138 1800 165.50 1788.50Q193 1777 215 1760.50Q237 1744 255 1724Q273 1704 290 1687.50Q307 1671 323 1659.50Q339 1648 358 1648Q420 1648 420 1786L534 1786Q534 1729 521.50 1682.50Q509 1636 486 1603Q463 1570 430.50 1552.50Q398 1535 358 1535Z"  horiz-adv-x="460" vert-adv-y="2048"  />

      
      <glyph glyph-name="uni012E" unicode="&#x012E;" d="M228-432Q176-432 133.50-416.50Q91-401 60.50-373Q30-345 13.50-305Q-3-265-3-217Q-3-142 30.50-85.50Q64-29 140 23L140 1443L320 1443L320 13Q239-23 196.50-73Q154-123 154-180Q154-234 186-266Q218-298 272-298Q298-298 316-295L316-421Q274-432 228-432Z"  horiz-adv-x="460" vert-adv-y="2048"  />

      
      <glyph glyph-name="uni4a" unicode="&#x4a;" d="M221 339Q222 293 239.50 255Q257 217 287 189.50Q317 162 358.50 147Q400 132 449 132Q569 132 631.50 201Q694 270 694 403L694 1443L874 1443L874 402Q874 299 845 218Q816 137 761.50 81Q707 25 628.50-4.50Q550-34 450-34Q360-34 285-6.50Q210 21 156 70.50Q102 120 72 188.50Q42 257 42 339L221 339Z"  horiz-adv-x="1014" vert-adv-y="2048"  />

      
      <glyph glyph-name="uni0134" unicode="&#x0134;" d="M221 339Q222 293 239.50 255Q257 217 287 189.50Q317 162 358.50 147Q400 132 449 132Q569 132 631.50 201Q694 270 694 403L694 1443L874 1443L874 402Q874 299 845 218Q816 137 761.50 81Q707 25 628.50-4.50Q550-34 450-34Q360-34 285-6.50Q210 21 156 70.50Q102 120 72 188.50Q42 257 42 339L221 339M855 1849L1147 1550L979 1550L785 1751L783 1751L589 1550L421 1550L713 1849L855 1849Z"  horiz-adv-x="1014" vert-adv-y="2048"  />

      
      <glyph glyph-name="uni4b" unicode="&#x4b;" d="M140 0L140 1443L320 1443L320 739L330 739L967 1443L1194 1443L601 804L1247 0L1017 0L476 676L320 504L320 0L140 0Z"  horiz-adv-x="1260" vert-adv-y="2048"  />

      
      <glyph glyph-name="uni1E30" unicode="&#x1E30;" d="M140 0L140 1443L320 1443L320 739L330 739L967 1443L1194 1443L601 804L1247 0L1017 0L476 676L320 504L320 0L140 0M538 1550L769 1849L967 1849L686 1550L538 1550Z"  horiz-adv-x="1260" vert-adv-y="2048"  />

      
      <glyph glyph-name="uni01E8" unicode="&#x01E8;" d="M140 0L140 1443L320 1443L320 739L330 739L967 1443L1194 1443L601 804L1247 0L1017 0L476 676L320 504L320 0L140 0M246 1849L414 1849L608 1648L610 1648L804 1849L972 1849L680 1550L538 1550L246 1849Z"  horiz-adv-x="1260" vert-adv-y="2048"  />

      
      <glyph glyph-name="uni1E32" unicode="&#x1E32;" d="M140 0L140 1443L320 1443L320 739L330 739L967 1443L1194 1443L601 804L1247 0L1017 0L476 676L320 504L320 0L140 0M609-392Q584-392 562-382.50Q540-373 523.50-356.50Q507-340 497.50-318Q488-296 488-271Q488-246 497.50-224Q507-202 523.50-185.50Q540-169 562-159.50Q584-150 609-150Q634-150 656-159.50Q678-169 694.50-185.50Q711-202 720.50-224Q730-246 730-271Q730-296 720.50-318Q711-340 694.50-356.50Q678-373 656-382.50Q634-392 609-392Z"  horiz-adv-x="1260" vert-adv-y="2048"  />

      
      <glyph glyph-name="uni1E34" unicode="&#x1E34;" d="M140 0L140 1443L320 1443L320 739L330 739L967 1443L1194 1443L601 804L1247 0L1017 0L476 676L320 504L320 0L140 0M926-326L292-326L292-220L926-220L926-326Z"  horiz-adv-x="1260" vert-adv-y="2048"  />

      
      <glyph glyph-name="uni0136" unicode="&#x0136;" d="M140 0L140 1443L320 1443L320 739L330 739L967 1443L1194 1443L601 804L1247 0L1017 0L476 676L320 504L320 0L140 0M468-541L559-172L712-172L594-541L468-541Z"  horiz-adv-x="1260" vert-adv-y="2048"  />

      
      <glyph glyph-name="uni4c" unicode="&#x4c;" d="M1016 0L140 0L140 1443L320 1443L320 162L1016 162L1016 0Z"  horiz-adv-x="1074" vert-adv-y="2048"  />

      
      <glyph glyph-name="uni0139" unicode="&#x0139;" d="M1016 0L140 0L140 1443L320 1443L320 162L1016 162L1016 0M159 1550L390 1849L588 1849L307 1550L159 1550Z"  horiz-adv-x="1074" vert-adv-y="2048"  />

      
      <glyph glyph-name="uni1E3C" unicode="&#x1E3C;" d="M1016 0L140 0L140 1443L320 1443L320 162L1016 162L1016 0M649-166L941-465L773-465L579-264L577-264L383-465L215-465L507-166L649-166Z"  horiz-adv-x="1074" vert-adv-y="2048"  />

      
      <glyph glyph-name="uni1E36" unicode="&#x1E36;" d="M1016 0L140 0L140 1443L320 1443L320 162L1016 162L1016 0M578-392Q553-392 531-382.50Q509-373 492.50-356.50Q476-340 466.50-318Q457-296 457-271Q457-246 466.50-224Q476-202 492.50-185.50Q509-169 531-159.50Q553-150 578-150Q603-150 625-159.50Q647-169 663.50-185.50Q680-202 689.50-224Q699-246 699-271Q699-296 689.50-318Q680-340 663.50-356.50Q647-373 625-382.50Q603-392 578-392Z"  horiz-adv-x="1074" vert-adv-y="2048"  />

      
      <glyph glyph-name="uni1E38" unicode="&#x1E38;" d="M1016 0L140 0L140 1443L320 1443L320 162L1016 162L1016 0M578-392Q553-392 531-382.50Q509-373 492.50-356.50Q476-340 466.50-318Q457-296 457-271Q457-246 466.50-224Q476-202 492.50-185.50Q509-169 531-159.50Q553-150 578-150Q603-150 625-159.50Q647-169 663.50-185.50Q680-202 689.50-224Q699-246 699-271Q699-296 689.50-318Q680-340 663.50-356.50Q647-373 625-382.50Q603-392 578-392M547 1642L-87 1642L-87 1748L547 1748L547 1642Z"  horiz-adv-x="1074" vert-adv-y="2048"  />

      
      <glyph glyph-name="uni1E3A" unicode="&#x1E3A;" d="M1016 0L140 0L140 1443L320 1443L320 162L1016 162L1016 0M895-326L261-326L261-220L895-220L895-326Z"  horiz-adv-x="1074" vert-adv-y="2048"  />

      
      <glyph glyph-name="uni013B" unicode="&#x013B;" d="M1016 0L140 0L140 1443L320 1443L320 162L1016 162L1016 0M437-541L528-172L681-172L563-541L437-541Z"  horiz-adv-x="1074" vert-adv-y="2048"  />

      
      <glyph glyph-name="uni013D" unicode="&#x013D;" d="M759 1443L709 955L589 955L589 1443L759 1443M1016 0L140 0L140 1443L320 1443L320 162L1016 162L1016 0Z"  horiz-adv-x="1074" vert-adv-y="2048"  />

      
      <glyph glyph-name="uni0141" unicode="&#x0141;" d="M1016 162L1016 0L140 0L140 699L18 643L18 786L140 842L140 1443L320 1443L320 924L656 1077L656 934L320 781L320 162L1016 162Z"  horiz-adv-x="1074" vert-adv-y="2048"  />

      
      <glyph glyph-name="uni4d" unicode="&#x4d;" d="M1562 0L1394 0L1394 1112L1387 1112L927 10L775 10L315 1112L308 1112L308 0L140 0L140 1443L349 1443L847 239L855 239L1353 1443L1562 1443L1562 0Z"  horiz-adv-x="1702" vert-adv-y="2048"  />

      
      <glyph glyph-name="uni1E3E" unicode="&#x1E3E;" d="M780 1550L1011 1849L1209 1849L928 1550L780 1550M1562 0L1394 0L1394 1112L1387 1112L927 10L775 10L315 1112L308 1112L308 0L140 0L140 1443L349 1443L847 239L855 239L1353 1443L1562 1443L1562 0Z"  horiz-adv-x="1702" vert-adv-y="2048"  />

      
      <glyph glyph-name="uni1E40" unicode="&#x1E40;" d="M851 1585Q826 1585 804 1594.50Q782 1604 765.50 1620.50Q749 1637 739.50 1659Q730 1681 730 1706Q730 1731 739.50 1753Q749 1775 765.50 1791.50Q782 1808 804 1817.50Q826 1827 851 1827Q876 1827 898 1817.50Q920 1808 936.50 1791.50Q953 1775 962.50 1753Q972 1731 972 1706Q972 1681 962.50 1659Q953 1637 936.50 1620.50Q920 1604 898 1594.50Q876 1585 851 1585M1562 0L1394 0L1394 1112L1387 1112L927 10L775 10L315 1112L308 1112L308 0L140 0L140 1443L349 1443L847 239L855 239L1353 1443L1562 1443L1562 0Z"  horiz-adv-x="1702" vert-adv-y="2048"  />

      
      <glyph glyph-name="uni1E42" unicode="&#x1E42;" d="M851-392Q826-392 804-382.50Q782-373 765.50-356.50Q749-340 739.50-318Q730-296 730-271Q730-246 739.50-224Q749-202 765.50-185.50Q782-169 804-159.50Q826-150 851-150Q876-150 898-159.50Q920-169 936.50-185.50Q953-202 962.50-224Q972-246 972-271Q972-296 962.50-318Q953-340 936.50-356.50Q920-373 898-382.50Q876-392 851-392M1562 0L1394 0L1394 1112L1387 1112L927 10L775 10L315 1112L308 1112L308 0L140 0L140 1443L349 1443L847 239L855 239L1353 1443L1562 1443L1562 0Z"  horiz-adv-x="1702" vert-adv-y="2048"  />

      
      <glyph glyph-name="uni4e" unicode="&#x4e;" d="M140 0L140 1443L315 1443L1105 310L1114 310L1114 1443L1292 1443L1292 0L1117 0L327 1129L318 1129L318 0L140 0Z"  horiz-adv-x="1432" vert-adv-y="2048"  />

      
      <glyph glyph-name="uni01F8" unicode="&#x01F8;" d="M140 0L140 1443L315 1443L1105 310L1114 310L1114 1443L1292 1443L1292 0L1117 0L327 1129L318 1129L318 0L140 0M361 1849L559 1849L790 1550L642 1550L361 1849Z"  horiz-adv-x="1432" vert-adv-y="2048"  />

      
      <glyph glyph-name="uni0143" unicode="&#x0143;" d="M140 0L140 1443L315 1443L1105 310L1114 310L1114 1443L1292 1443L1292 0L1117 0L327 1129L318 1129L318 0L140 0M645 1550L876 1849L1074 1849L793 1550L645 1550Z"  horiz-adv-x="1432" vert-adv-y="2048"  />

      
      <glyph glyph-name="unid1" unicode="&#xd1;" d="M140 0L140 1443L315 1443L1105 310L1114 310L1114 1443L1292 1443L1292 0L1117 0L327 1129L318 1129L318 0L140 0M844 1535Q812 1535 786.50 1546.50Q761 1558 740 1574.50Q719 1591 701 1611Q683 1631 666 1647.50Q649 1664 632 1675.50Q615 1687 595 1687Q562 1687 544 1651.50Q526 1616 526 1550L412 1550Q412 1668 458.50 1734Q505 1800 590 1800Q624 1800 651.50 1788.50Q679 1777 701 1760.50Q723 1744 741 1724Q759 1704 776 1687.50Q793 1671 809 1659.50Q825 1648 844 1648Q906 1648 906 1786L1020 1786Q1020 1729 1007.50 1682.50Q995 1636 972 1603Q949 1570 916.50 1552.50Q884 1535 844 1535Z"  horiz-adv-x="1432" vert-adv-y="2048"  />

      
      <glyph glyph-name="uni1E46" unicode="&#x1E46;" d="M140 0L140 1443L315 1443L1105 310L1114 310L1114 1443L1292 1443L1292 0L1117 0L327 1129L318 1129L318 0L140 0M716-392Q691-392 669-382.50Q647-373 630.50-356.50Q614-340 604.50-318Q595-296 595-271Q595-246 604.50-224Q614-202 630.50-185.50Q647-169 669-159.50Q691-150 716-150Q741-150 763-159.50Q785-169 801.50-185.50Q818-202 827.50-224Q837-246 837-271Q837-296 827.50-318Q818-340 801.50-356.50Q785-373 763-382.50Q741-392 716-392Z"  horiz-adv-x="1432" vert-adv-y="2048"  />

      
      <glyph glyph-name="uni1E44" unicode="&#x1E44;" d="M140 0L140 1443L315 1443L1105 310L1114 310L1114 1443L1292 1443L1292 0L1117 0L327 1129L318 1129L318 0L140 0M716 1585Q691 1585 669 1594.50Q647 1604 630.50 1620.50Q614 1637 604.50 1659Q595 1681 595 1706Q595 1731 604.50 1753Q614 1775 630.50 1791.50Q647 1808 669 1817.50Q691 1827 716 1827Q741 1827 763 1817.50Q785 1808 801.50 1791.50Q818 1775 827.50 1753Q837 1731 837 1706Q837 1681 827.50 1659Q818 1637 801.50 1620.50Q785 1604 763 1594.50Q741 1585 716 1585Z"  horiz-adv-x="1432" vert-adv-y="2048"  />

      
      <glyph glyph-name="uni0147" unicode="&#x0147;" d="M140 0L140 1443L315 1443L1105 310L1114 310L1114 1443L1292 1443L1292 0L1117 0L327 1129L318 1129L318 0L140 0M353 1849L521 1849L715 1648L717 1648L911 1849L1079 1849L787 1550L645 1550L353 1849Z"  horiz-adv-x="1432" vert-adv-y="2048"  />

      
      <glyph glyph-name="uni1E4A" unicode="&#x1E4A;" d="M140 0L140 1443L315 1443L1105 310L1114 310L1114 1443L1292 1443L1292 0L1117 0L327 1129L318 1129L318 0L140 0M787-166L1079-465L911-465L717-264L715-264L521-465L353-465L645-166L787-166Z"  horiz-adv-x="1432" vert-adv-y="2048"  />

      
      <glyph glyph-name="uni1E48" unicode="&#x1E48;" d="M140 0L140 1443L315 1443L1105 310L1114 310L1114 1443L1292 1443L1292 0L1117 0L327 1129L318 1129L318 0L140 0M1033-326L399-326L399-220L1033-220L1033-326Z"  horiz-adv-x="1432" vert-adv-y="2048"  />

      
      <glyph glyph-name="uni0145" unicode="&#x0145;" d="M140 0L140 1443L315 1443L1105 310L1114 310L1114 1443L1292 1443L1292 0L1117 0L327 1129L318 1129L318 0L140 0M575-541L666-172L819-172L701-541L575-541Z"  horiz-adv-x="1432" vert-adv-y="2048"  />

      
      <glyph glyph-name="uni4f" unicode="&#x4f;" d="M749 1467Q902 1467 1025.50 1415Q1149 1363 1235 1266Q1321 1169 1367.50 1031Q1414 893 1414 721Q1414 549 1367.50 411Q1321 273 1235 176.50Q1149 80 1025.50 28Q902-24 749-24Q596-24 472.50 28Q349 80 263 176.50Q177 273 130.50 411Q84 549 84 721Q84 893 130.50 1031Q177 1169 263 1266Q349 1363 472.50 1415Q596 1467 749 1467M749 1301Q638 1301 549.50 1260.50Q461 1220 398.50 1144.50Q336 1069 302.50 961.50Q269 854 269 721Q269 588 302.50 481Q336 374 398.50 298.50Q461 223 549.50 182.50Q638 142 749 142Q860 142 948.50 182.50Q1037 223 1099.50 298.50Q1162 374 1195.50 481Q1229 588 1229 721Q1229 854 1195.50 961.50Q1162 1069 1099.50 1144.50Q1037 1220 948.50 1260.50Q860 1301 749 1301Z"  horiz-adv-x="1498" vert-adv-y="2048"  />

      
      <glyph glyph-name="unid6" unicode="&#xd6;" d="M749 1467Q902 1467 1025.50 1415Q1149 1363 1235 1266Q1321 1169 1367.50 1031Q1414 893 1414 721Q1414 549 1367.50 411Q1321 273 1235 176.50Q1149 80 1025.50 28Q902-24 749-24Q596-24 472.50 28Q349 80 263 176.50Q177 273 130.50 411Q84 549 84 721Q84 893 130.50 1031Q177 1169 263 1266Q349 1363 472.50 1415Q596 1467 749 1467M749 1301Q638 1301 549.50 1260.50Q461 1220 398.50 1144.50Q336 1069 302.50 961.50Q269 854 269 721Q269 588 302.50 481Q336 374 398.50 298.50Q461 223 549.50 182.50Q638 142 749 142Q860 142 948.50 182.50Q1037 223 1099.50 298.50Q1162 374 1195.50 481Q1229 588 1229 721Q1229 854 1195.50 961.50Q1162 1069 1099.50 1144.50Q1037 1220 948.50 1260.50Q860 1301 749 1301M552 1585Q529 1585 508.50 1594Q488 1603 473 1618Q458 1633 449 1653.50Q440 1674 440 1697Q440 1720 449 1740.50Q458 1761 473 1776Q488 1791 508.50 1800Q529 1809 552 1809Q575 1809 595.50 1800Q616 1791 631 1776Q646 1761 655 1740.50Q664 1720 664 1697Q664 1674 655 1653.50Q646 1633 631 1618Q616 1603 595.50 1594Q575 1585 552 1585M946 1585Q923 1585 902.50 1594Q882 1603 867 1618Q852 1633 843 1653.50Q834 1674 834 1697Q834 1720 843 1740.50Q852 1761 867 1776Q882 1791 902.50 1800Q923 1809 946 1809Q969 1809 989.50 1800Q1010 1791 1025 1776Q1040 1761 1049 1740.50Q1058 1720 1058 1697Q1058 1674 1049 1653.50Q1040 1633 1025 1618Q1010 1603 989.50 1594Q969 1585 946 1585Z"  horiz-adv-x="1498" vert-adv-y="2048"  />

      
      <glyph glyph-name="unid8" unicode="&#xd8;" d="M470 230Q527 187 597 164.50Q667 142 749 142Q860 142 948.50 182.50Q1037 223 1099.50 298.50Q1162 374 1195.50 481Q1229 588 1229 721Q1229 835 1205 929.50Q1181 1024 1135 1096L470 230M1055 1191Q995 1245 918.50 1273Q842 1301 749 1301Q638 1301 549.50 1260.50Q461 1220 398.50 1144.50Q336 1069 302.50 961.50Q269 854 269 721Q269 596 298 495Q327 394 382 319L1055 1191M1250 1247Q1330 1150 1372 1018Q1414 886 1414 721Q1414 549 1367.50 411Q1321 273 1235 176.50Q1149 80 1025.50 28Q902-24 749-24Q634-24 537 5Q440 34 362 89L258-47L158 29L268 171Q179 269 131.50 407.50Q84 546 84 721Q84 893 130.50 1031Q177 1169 263 1266Q349 1363 472.50 1415Q596 1467 749 1467Q874 1467 978.50 1433Q1083 1399 1164 1333L1284 1488L1382 1419L1250 1247Z"  horiz-adv-x="1498" vert-adv-y="2048"  />

      
      <glyph glyph-name="unid5" unicode="&#xd5;" d="M749 1467Q902 1467 1025.50 1415Q1149 1363 1235 1266Q1321 1169 1367.50 1031Q1414 893 1414 721Q1414 549 1367.50 411Q1321 273 1235 176.50Q1149 80 1025.50 28Q902-24 749-24Q596-24 472.50 28Q349 80 263 176.50Q177 273 130.50 411Q84 549 84 721Q84 893 130.50 1031Q177 1169 263 1266Q349 1363 472.50 1415Q596 1467 749 1467M749 1301Q638 1301 549.50 1260.50Q461 1220 398.50 1144.50Q336 1069 302.50 961.50Q269 854 269 721Q269 588 302.50 481Q336 374 398.50 298.50Q461 223 549.50 182.50Q638 142 749 142Q860 142 948.50 182.50Q1037 223 1099.50 298.50Q1162 374 1195.50 481Q1229 588 1229 721Q1229 854 1195.50 961.50Q1162 1069 1099.50 1144.50Q1037 1220 948.50 1260.50Q860 1301 749 1301M877 1535Q845 1535 819.50 1546.50Q794 1558 773 1574.50Q752 1591 734 1611Q716 1631 699 1647.50Q682 1664 665 1675.50Q648 1687 628 1687Q595 1687 577 1651.50Q559 1616 559 1550L445 1550Q445 1668 491.50 1734Q538 1800 623 1800Q657 1800 684.50 1788.50Q712 1777 734 1760.50Q756 1744 774 1724Q792 1704 809 1687.50Q826 1671 842 1659.50Q858 1648 877 1648Q939 1648 939 1786L1053 1786Q1053 1729 1040.50 1682.50Q1028 1636 1005 1603Q982 1570 949.50 1552.50Q917 1535 877 1535Z"  horiz-adv-x="1498" vert-adv-y="2048"  />

      
      <glyph glyph-name="unid3" unicode="&#xd3;" d="M749 1467Q902 1467 1025.50 1415Q1149 1363 1235 1266Q1321 1169 1367.50 1031Q1414 893 1414 721Q1414 549 1367.50 411Q1321 273 1235 176.50Q1149 80 1025.50 28Q902-24 749-24Q596-24 472.50 28Q349 80 263 176.50Q177 273 130.50 411Q84 549 84 721Q84 893 130.50 1031Q177 1169 263 1266Q349 1363 472.50 1415Q596 1467 749 1467M749 1301Q638 1301 549.50 1260.50Q461 1220 398.50 1144.50Q336 1069 302.50 961.50Q269 854 269 721Q269 588 302.50 481Q336 374 398.50 298.50Q461 223 549.50 182.50Q638 142 749 142Q860 142 948.50 182.50Q1037 223 1099.50 298.50Q1162 374 1195.50 481Q1229 588 1229 721Q1229 854 1195.50 961.50Q1162 1069 1099.50 1144.50Q1037 1220 948.50 1260.50Q860 1301 749 1301M678 1550L909 1849L1107 1849L826 1550L678 1550Z"  horiz-adv-x="1498" vert-adv-y="2048"  />

      
      <glyph glyph-name="unid4" unicode="&#xd4;" d="M749 1467Q902 1467 1025.50 1415Q1149 1363 1235 1266Q1321 1169 1367.50 1031Q1414 893 1414 721Q1414 549 1367.50 411Q1321 273 1235 176.50Q1149 80 1025.50 28Q902-24 749-24Q596-24 472.50 28Q349 80 263 176.50Q177 273 130.50 411Q84 549 84 721Q84 893 130.50 1031Q177 1169 263 1266Q349 1363 472.50 1415Q596 1467 749 1467M749 1301Q638 1301 549.50 1260.50Q461 1220 398.50 1144.50Q336 1069 302.50 961.50Q269 854 269 721Q269 588 302.50 481Q336 374 398.50 298.50Q461 223 549.50 182.50Q638 142 749 142Q860 142 948.50 182.50Q1037 223 1099.50 298.50Q1162 374 1195.50 481Q1229 588 1229 721Q1229 854 1195.50 961.50Q1162 1069 1099.50 1144.50Q1037 1220 948.50 1260.50Q860 1301 749 1301M820 1849L1112 1550L944 1550L750 1751L748 1751L554 1550L386 1550L678 1849L820 1849Z"  horiz-adv-x="1498" vert-adv-y="2048"  />

      
      <glyph glyph-name="unid2" unicode="&#xd2;" d="M749 1467Q902 1467 1025.50 1415Q1149 1363 1235 1266Q1321 1169 1367.50 1031Q1414 893 1414 721Q1414 549 1367.50 411Q1321 273 1235 176.50Q1149 80 1025.50 28Q902-24 749-24Q596-24 472.50 28Q349 80 263 176.50Q177 273 130.50 411Q84 549 84 721Q84 893 130.50 1031Q177 1169 263 1266Q349 1363 472.50 1415Q596 1467 749 1467M749 1301Q638 1301 549.50 1260.50Q461 1220 398.50 1144.50Q336 1069 302.50 961.50Q269 854 269 721Q269 588 302.50 481Q336 374 398.50 298.50Q461 223 549.50 182.50Q638 142 749 142Q860 142 948.50 182.50Q1037 223 1099.50 298.50Q1162 374 1195.50 481Q1229 588 1229 721Q1229 854 1195.50 961.50Q1162 1069 1099.50 1144.50Q1037 1220 948.50 1260.50Q860 1301 749 1301M394 1849L592 1849L823 1550L675 1550L394 1849Z"  horiz-adv-x="1498" vert-adv-y="2048"  />

      
      <glyph glyph-name="uni1ED4" unicode="&#x1ED4;" d="M749 1467Q902 1467 1025.50 1415Q1149 1363 1235 1266Q1321 1169 1367.50 1031Q1414 893 1414 721Q1414 549 1367.50 411Q1321 273 1235 176.50Q1149 80 1025.50 28Q902-24 749-24Q596-24 472.50 28Q349 80 263 176.50Q177 273 130.50 411Q84 549 84 721Q84 893 130.50 1031Q177 1169 263 1266Q349 1363 472.50 1415Q596 1467 749 1467M749 1301Q638 1301 549.50 1260.50Q461 1220 398.50 1144.50Q336 1069 302.50 961.50Q269 854 269 721Q269 588 302.50 481Q336 374 398.50 298.50Q461 223 549.50 182.50Q638 142 749 142Q860 142 948.50 182.50Q1037 223 1099.50 298.50Q1162 374 1195.50 481Q1229 588 1229 721Q1229 854 1195.50 961.50Q1162 1069 1099.50 1144.50Q1037 1220 948.50 1260.50Q860 1301 749 1301M829 1798L1095 1575L912 1575L759 1708L744 1708L590 1575L407 1575L674 1798L829 1798M873 2031Q895 2042 923.50 2047.50Q952 2053 978 2053Q1015 2053 1046.50 2042.50Q1078 2032 1100 2013Q1122 1994 1134.50 1967Q1147 1940 1147 1907Q1147 1853 1116.50 1810Q1086 1767 1033 1750L956 1811Q991 1823 1012.50 1847.50Q1034 1872 1034 1901Q1034 1927 1012.50 1944.50Q991 1962 959 1962Q907 1962 873 1945L873 2031Z"  horiz-adv-x="1498" vert-adv-y="2048"  />

      
      <glyph glyph-name="uni1ED2" unicode="&#x1ED2;" d="M749 1467Q902 1467 1025.50 1415Q1149 1363 1235 1266Q1321 1169 1367.50 1031Q1414 893 1414 721Q1414 549 1367.50 411Q1321 273 1235 176.50Q1149 80 1025.50 28Q902-24 749-24Q596-24 472.50 28Q349 80 263 176.50Q177 273 130.50 411Q84 549 84 721Q84 893 130.50 1031Q177 1169 263 1266Q349 1363 472.50 1415Q596 1467 749 1467M749 1301Q638 1301 549.50 1260.50Q461 1220 398.50 1144.50Q336 1069 302.50 961.50Q269 854 269 721Q269 588 302.50 481Q336 374 398.50 298.50Q461 223 549.50 182.50Q638 142 749 142Q860 142 948.50 182.50Q1037 223 1099.50 298.50Q1162 374 1195.50 481Q1229 588 1229 721Q1229 854 1195.50 961.50Q1162 1069 1099.50 1144.50Q1037 1220 948.50 1260.50Q860 1301 749 1301M826 1798L1093 1575L910 1575L756 1708L742 1708L588 1575L405 1575L672 1798L826 1798M924 1849L688 2053L875 2053L1060 1849L924 1849Z"  horiz-adv-x="1498" vert-adv-y="2048"  />

      
      <glyph glyph-name="uni1ECC" unicode="&#x1ECC;" d="M749 1467Q902 1467 1025.50 1415Q1149 1363 1235 1266Q1321 1169 1367.50 1031Q1414 893 1414 721Q1414 549 1367.50 411Q1321 273 1235 176.50Q1149 80 1025.50 28Q902-24 749-24Q596-24 472.50 28Q349 80 263 176.50Q177 273 130.50 411Q84 549 84 721Q84 893 130.50 1031Q177 1169 263 1266Q349 1363 472.50 1415Q596 1467 749 1467M749 1301Q638 1301 549.50 1260.50Q461 1220 398.50 1144.50Q336 1069 302.50 961.50Q269 854 269 721Q269 588 302.50 481Q336 374 398.50 298.50Q461 223 549.50 182.50Q638 142 749 142Q860 142 948.50 182.50Q1037 223 1099.50 298.50Q1162 374 1195.50 481Q1229 588 1229 721Q1229 854 1195.50 961.50Q1162 1069 1099.50 1144.50Q1037 1220 948.50 1260.50Q860 1301 749 1301M749-392Q724-392 702-382.50Q680-373 663.50-356.50Q647-340 637.50-318Q628-296 628-271Q628-246 637.50-224Q647-202 663.50-185.50Q680-169 702-159.50Q724-150 749-150Q774-150 796-159.50Q818-169 834.50-185.50Q851-202 860.50-224Q870-246 870-271Q870-296 860.50-318Q851-340 834.50-356.50Q818-373 796-382.50Q774-392 749-392Z"  horiz-adv-x="1498" vert-adv-y="2048"  />

      
      <glyph glyph-name="uni020C" unicode="&#x020C;" d="M749 1467Q902 1467 1025.50 1415Q1149 1363 1235 1266Q1321 1169 1367.50 1031Q1414 893 1414 721Q1414 549 1367.50 411Q1321 273 1235 176.50Q1149 80 1025.50 28Q902-24 749-24Q596-24 472.50 28Q349 80 263 176.50Q177 273 130.50 411Q84 549 84 721Q84 893 130.50 1031Q177 1169 263 1266Q349 1363 472.50 1415Q596 1467 749 1467M749 1301Q638 1301 549.50 1260.50Q461 1220 398.50 1144.50Q336 1069 302.50 961.50Q269 854 269 721Q269 588 302.50 481Q336 374 398.50 298.50Q461 223 549.50 182.50Q638 142 749 142Q860 142 948.50 182.50Q1037 223 1099.50 298.50Q1162 374 1195.50 481Q1229 588 1229 721Q1229 854 1195.50 961.50Q1162 1069 1099.50 1144.50Q1037 1220 948.50 1260.50Q860 1301 749 1301M554 1849L742 1849L973 1550L835 1550L554 1849M244 1849L432 1849L663 1550L525 1550L244 1849Z"  horiz-adv-x="1498" vert-adv-y="2048"  />

      
      <glyph glyph-name="uni1E4C" unicode="&#x1E4C;" d="M749 1467Q902 1467 1025.50 1415Q1149 1363 1235 1266Q1321 1169 1367.50 1031Q1414 893 1414 721Q1414 549 1367.50 411Q1321 273 1235 176.50Q1149 80 1025.50 28Q902-24 749-24Q596-24 472.50 28Q349 80 263 176.50Q177 273 130.50 411Q84 549 84 721Q84 893 130.50 1031Q177 1169 263 1266Q349 1363 472.50 1415Q596 1467 749 1467M749 1301Q638 1301 549.50 1260.50Q461 1220 398.50 1144.50Q336 1069 302.50 961.50Q269 854 269 721Q269 588 302.50 481Q336 374 398.50 298.50Q461 223 549.50 182.50Q638 142 749 142Q860 142 948.50 182.50Q1037 223 1099.50 298.50Q1162 374 1195.50 481Q1229 588 1229 721Q1229 854 1195.50 961.50Q1162 1069 1099.50 1144.50Q1037 1220 948.50 1260.50Q860 1301 749 1301M875 1535Q843 1535 817.50 1546.50Q792 1558 771 1574.50Q750 1591 732 1611Q714 1631 697 1647.50Q680 1664 663 1675.50Q646 1687 626 1687Q593 1687 575 1651.50Q557 1616 557 1550L443 1550Q443 1668 489.50 1734Q536 1800 621 1800Q655 1800 682.50 1788.50Q710 1777 732 1760.50Q754 1744 772 1724Q790 1704 807 1687.50Q824 1671 840 1659.50Q856 1648 875 1648Q937 1648 937 1786L1051 1786Q1051 1729 1038.50 1682.50Q1026 1636 1003 1603Q980 1570 947.50 1552.50Q915 1535 875 1535M868 2053L1055 2053L819 1849L683 1849L868 2053Z"  horiz-adv-x="1498" vert-adv-y="2048"  />

      
      <glyph glyph-name="uni1E52" unicode="&#x1E52;" d="M749 1467Q902 1467 1025.50 1415Q1149 1363 1235 1266Q1321 1169 1367.50 1031Q1414 893 1414 721Q1414 549 1367.50 411Q1321 273 1235 176.50Q1149 80 1025.50 28Q902-24 749-24Q596-24 472.50 28Q349 80 263 176.50Q177 273 130.50 411Q84 549 84 721Q84 893 130.50 1031Q177 1169 263 1266Q349 1363 472.50 1415Q596 1467 749 1467M749 1301Q638 1301 549.50 1260.50Q461 1220 398.50 1144.50Q336 1069 302.50 961.50Q269 854 269 721Q269 588 302.50 481Q336 374 398.50 298.50Q461 223 549.50 182.50Q638 142 749 142Q860 142 948.50 182.50Q1037 223 1099.50 298.50Q1162 374 1195.50 481Q1229 588 1229 721Q1229 854 1195.50 961.50Q1162 1069 1099.50 1144.50Q1037 1220 948.50 1260.50Q860 1301 749 1301M432 1642L432 1748L1066 1748L1066 1642L432 1642M866 2053L1053 2053L817 1849L681 1849L866 2053Z"  horiz-adv-x="1498" vert-adv-y="2048"  />

      
      <glyph glyph-name="uni1ED6" unicode="&#x1ED6;" d="M749 1467Q902 1467 1025.50 1415Q1149 1363 1235 1266Q1321 1169 1367.50 1031Q1414 893 1414 721Q1414 549 1367.50 411Q1321 273 1235 176.50Q1149 80 1025.50 28Q902-24 749-24Q596-24 472.50 28Q349 80 263 176.50Q177 273 130.50 411Q84 549 84 721Q84 893 130.50 1031Q177 1169 263 1266Q349 1363 472.50 1415Q596 1467 749 1467M749 1301Q638 1301 549.50 1260.50Q461 1220 398.50 1144.50Q336 1069 302.50 961.50Q269 854 269 721Q269 588 302.50 481Q336 374 398.50 298.50Q461 223 549.50 182.50Q638 142 749 142Q860 142 948.50 182.50Q1037 223 1099.50 298.50Q1162 374 1195.50 481Q1229 588 1229 721Q1229 854 1195.50 961.50Q1162 1069 1099.50 1144.50Q1037 1220 948.50 1260.50Q860 1301 749 1301M870 1832Q836 1832 811.50 1842Q787 1852 768.50 1867Q750 1882 736 1900Q722 1918 708 1933Q694 1948 678 1958Q662 1968 640 1968Q602 1968 585 1940.50Q568 1913 565 1849L456 1849Q456 1953 504.50 2010.50Q553 2068 639 2068Q675 2068 701 2058Q727 2048 746.50 2033.50Q766 2019 780.50 2001.50Q795 1984 808.50 1969.50Q822 1955 836 1945Q850 1935 868 1935Q904 1935 921.50 1963Q939 1991 942 2053L1050 2053Q1050 2003 1037 1962Q1024 1921 1000.50 1892Q977 1863 943.50 1847.50Q910 1832 870 1832M826 1779L1093 1575L910 1575L756 1690L742 1690L588 1575L405 1575L672 1779L826 1779Z"  horiz-adv-x="1498" vert-adv-y="2048"  />

      
      <glyph glyph-name="uni0230" unicode="&#x0230;" d="M749 1467Q902 1467 1025.50 1415Q1149 1363 1235 1266Q1321 1169 1367.50 1031Q1414 893 1414 721Q1414 549 1367.50 411Q1321 273 1235 176.50Q1149 80 1025.50 28Q902-24 749-24Q596-24 472.50 28Q349 80 263 176.50Q177 273 130.50 411Q84 549 84 721Q84 893 130.50 1031Q177 1169 263 1266Q349 1363 472.50 1415Q596 1467 749 1467M749 1301Q638 1301 549.50 1260.50Q461 1220 398.50 1144.50Q336 1069 302.50 961.50Q269 854 269 721Q269 588 302.50 481Q336 374 398.50 298.50Q461 223 549.50 182.50Q638 142 749 142Q860 142 948.50 182.50Q1037 223 1099.50 298.50Q1162 374 1195.50 481Q1229 588 1229 721Q1229 854 1195.50 961.50Q1162 1069 1099.50 1144.50Q1037 1220 948.50 1260.50Q860 1301 749 1301M749 1574Q725 1574 703.50 1583Q682 1592 666 1608Q650 1624 641 1645.50Q632 1667 632 1691Q632 1715 641 1735.50Q650 1756 666 1772Q682 1788 703.50 1797Q725 1806 749 1806Q773 1806 794.50 1797Q816 1788 832 1772Q848 1756 857 1735.50Q866 1715 866 1691Q866 1667 857 1645.50Q848 1624 832 1608Q816 1592 794.50 1583Q773 1574 749 1574M1066 1919L432 1919L432 2025L1066 2025L1066 1919Z"  horiz-adv-x="1498" vert-adv-y="2048"  />

      
      <glyph glyph-name="uni1E50" unicode="&#x1E50;" d="M749 1467Q902 1467 1025.50 1415Q1149 1363 1235 1266Q1321 1169 1367.50 1031Q1414 893 1414 721Q1414 549 1367.50 411Q1321 273 1235 176.50Q1149 80 1025.50 28Q902-24 749-24Q596-24 472.50 28Q349 80 263 176.50Q177 273 130.50 411Q84 549 84 721Q84 893 130.50 1031Q177 1169 263 1266Q349 1363 472.50 1415Q596 1467 749 1467M749 1301Q638 1301 549.50 1260.50Q461 1220 398.50 1144.50Q336 1069 302.50 961.50Q269 854 269 721Q269 588 302.50 481Q336 374 398.50 298.50Q461 223 549.50 182.50Q638 142 749 142Q860 142 948.50 182.50Q1037 223 1099.50 298.50Q1162 374 1195.50 481Q1229 588 1229 721Q1229 854 1195.50 961.50Q1162 1069 1099.50 1144.50Q1037 1220 948.50 1260.50Q860 1301 749 1301M432 1748L1066 1748L1066 1642L432 1642L432 1748M681 1849L445 2053L632 2053L817 1849L681 1849Z"  horiz-adv-x="1498" vert-adv-y="2048"  />

      
      <glyph glyph-name="uni01D1" unicode="&#x01D1;" d="M749 1467Q902 1467 1025.50 1415Q1149 1363 1235 1266Q1321 1169 1367.50 1031Q1414 893 1414 721Q1414 549 1367.50 411Q1321 273 1235 176.50Q1149 80 1025.50 28Q902-24 749-24Q596-24 472.50 28Q349 80 263 176.50Q177 273 130.50 411Q84 549 84 721Q84 893 130.50 1031Q177 1169 263 1266Q349 1363 472.50 1415Q596 1467 749 1467M749 1301Q638 1301 549.50 1260.50Q461 1220 398.50 1144.50Q336 1069 302.50 961.50Q269 854 269 721Q269 588 302.50 481Q336 374 398.50 298.50Q461 223 549.50 182.50Q638 142 749 142Q860 142 948.50 182.50Q1037 223 1099.50 298.50Q1162 374 1195.50 481Q1229 588 1229 721Q1229 854 1195.50 961.50Q1162 1069 1099.50 1144.50Q1037 1220 948.50 1260.50Q860 1301 749 1301M386 1849L554 1849L748 1648L750 1648L944 1849L1112 1849L820 1550L678 1550L386 1849Z"  horiz-adv-x="1498" vert-adv-y="2048"  />

      
      <glyph glyph-name="uni01FE" unicode="&#x01FE;" d="M853 1550L705 1550L936 1849L1134 1849L853 1550M470 230Q527 187 597 164.50Q667 142 749 142Q860 142 948.50 182.50Q1037 223 1099.50 298.50Q1162 374 1195.50 481Q1229 588 1229 721Q1229 835 1205 929.50Q1181 1024 1135 1096L470 230M1055 1191Q995 1245 918.50 1273Q842 1301 749 1301Q638 1301 549.50 1260.50Q461 1220 398.50 1144.50Q336 1069 302.50 961.50Q269 854 269 721Q269 596 298 495Q327 394 382 319L1055 1191M1250 1247Q1330 1150 1372 1018Q1414 886 1414 721Q1414 549 1367.50 411Q1321 273 1235 176.50Q1149 80 1025.50 28Q902-24 749-24Q634-24 537 5Q440 34 362 89L258-47L158 29L268 171Q179 269 131.50 407.50Q84 546 84 721Q84 893 130.50 1031Q177 1169 263 1266Q349 1363 472.50 1415Q596 1467 749 1467Q874 1467 978.50 1433Q1083 1399 1164 1333L1284 1488L1382 1419L1250 1247Z"  horiz-adv-x="1498" vert-adv-y="2048"  />

      
      <glyph glyph-name="uni0150" unicode="&#x0150;" d="M749 1467Q902 1467 1025.50 1415Q1149 1363 1235 1266Q1321 1169 1367.50 1031Q1414 893 1414 721Q1414 549 1367.50 411Q1321 273 1235 176.50Q1149 80 1025.50 28Q902-24 749-24Q596-24 472.50 28Q349 80 263 176.50Q177 273 130.50 411Q84 549 84 721Q84 893 130.50 1031Q177 1169 263 1266Q349 1363 472.50 1415Q596 1467 749 1467M749 1301Q638 1301 549.50 1260.50Q461 1220 398.50 1144.50Q336 1069 302.50 961.50Q269 854 269 721Q269 588 302.50 481Q336 374 398.50 298.50Q461 223 549.50 182.50Q638 142 749 142Q860 142 948.50 182.50Q1037 223 1099.50 298.50Q1162 374 1195.50 481Q1229 588 1229 721Q1229 854 1195.50 961.50Q1162 1069 1099.50 1144.50Q1037 1220 948.50 1260.50Q860 1301 749 1301M835 1550L1066 1849L1254 1849L973 1550L835 1550M525 1550L756 1849L944 1849L663 1550L525 1550Z"  horiz-adv-x="1498" vert-adv-y="2048"  />

      
      <glyph glyph-name="uni014E" unicode="&#x014E;" d="M749 1467Q902 1467 1025.50 1415Q1149 1363 1235 1266Q1321 1169 1367.50 1031Q1414 893 1414 721Q1414 549 1367.50 411Q1321 273 1235 176.50Q1149 80 1025.50 28Q902-24 749-24Q596-24 472.50 28Q349 80 263 176.50Q177 273 130.50 411Q84 549 84 721Q84 893 130.50 1031Q177 1169 263 1266Q349 1363 472.50 1415Q596 1467 749 1467M749 1301Q638 1301 549.50 1260.50Q461 1220 398.50 1144.50Q336 1069 302.50 961.50Q269 854 269 721Q269 588 302.50 481Q336 374 398.50 298.50Q461 223 549.50 182.50Q638 142 749 142Q860 142 948.50 182.50Q1037 223 1099.50 298.50Q1162 374 1195.50 481Q1229 588 1229 721Q1229 854 1195.50 961.50Q1162 1069 1099.50 1144.50Q1037 1220 948.50 1260.50Q860 1301 749 1301M558 1849Q558 1808 572.50 1772Q587 1736 613 1709.50Q639 1683 673.50 1668Q708 1653 749 1653Q789 1653 824 1668Q859 1683 885 1709.50Q911 1736 925.50 1772Q940 1808 940 1849L1059 1849Q1059 1783 1036.50 1728Q1014 1673 973 1633.50Q932 1594 875 1572Q818 1550 749 1550Q680 1550 623 1572Q566 1594 525 1633.50Q484 1673 461.50 1728Q439 1783 439 1849L558 1849Z"  horiz-adv-x="1498" vert-adv-y="2048"  />

      
      <glyph glyph-name="uni020E" unicode="&#x020E;" d="M749 1467Q902 1467 1025.50 1415Q1149 1363 1235 1266Q1321 1169 1367.50 1031Q1414 893 1414 721Q1414 549 1367.50 411Q1321 273 1235 176.50Q1149 80 1025.50 28Q902-24 749-24Q596-24 472.50 28Q349 80 263 176.50Q177 273 130.50 411Q84 549 84 721Q84 893 130.50 1031Q177 1169 263 1266Q349 1363 472.50 1415Q596 1467 749 1467M749 1301Q638 1301 549.50 1260.50Q461 1220 398.50 1144.50Q336 1069 302.50 961.50Q269 854 269 721Q269 588 302.50 481Q336 374 398.50 298.50Q461 223 549.50 182.50Q638 142 749 142Q860 142 948.50 182.50Q1037 223 1099.50 298.50Q1162 374 1195.50 481Q1229 588 1229 721Q1229 854 1195.50 961.50Q1162 1069 1099.50 1144.50Q1037 1220 948.50 1260.50Q860 1301 749 1301M439 1550Q439 1616 461.50 1671Q484 1726 525 1765.50Q566 1805 623 1827Q680 1849 749 1849Q818 1849 875 1827Q932 1805 973 1765.50Q1014 1726 1036.50 1671Q1059 1616 1059 1550L940 1550Q940 1591 925.50 1627Q911 1663 885 1689.50Q859 1716 824 1731Q789 1746 749 1746Q708 1746 673.50 1731Q639 1716 613 1689.50Q587 1663 572.50 1627Q558 1591 558 1550L439 1550Z"  horiz-adv-x="1498" vert-adv-y="2048"  />

      
      <glyph glyph-name="uni1ECE" unicode="&#x1ECE;" d="M749 1467Q902 1467 1025.50 1415Q1149 1363 1235 1266Q1321 1169 1367.50 1031Q1414 893 1414 721Q1414 549 1367.50 411Q1321 273 1235 176.50Q1149 80 1025.50 28Q902-24 749-24Q596-24 472.50 28Q349 80 263 176.50Q177 273 130.50 411Q84 549 84 721Q84 893 130.50 1031Q177 1169 263 1266Q349 1363 472.50 1415Q596 1467 749 1467M749 1301Q638 1301 549.50 1260.50Q461 1220 398.50 1144.50Q336 1069 302.50 961.50Q269 854 269 721Q269 588 302.50 481Q336 374 398.50 298.50Q461 223 549.50 182.50Q638 142 749 142Q860 142 948.50 182.50Q1037 223 1099.50 298.50Q1162 374 1195.50 481Q1229 588 1229 721Q1229 854 1195.50 961.50Q1162 1069 1099.50 1144.50Q1037 1220 948.50 1260.50Q860 1301 749 1301M589 1869Q615 1880 646.50 1885.50Q678 1891 710 1891Q753 1891 788.50 1880Q824 1869 850 1848Q876 1827 890.50 1797.50Q905 1768 905 1731Q905 1701 893.50 1673Q882 1645 861 1621Q840 1597 811 1578Q782 1559 746 1547L686 1625Q727 1638 751.50 1665Q776 1692 776 1724Q776 1753 751.50 1772.50Q727 1792 689 1792Q664 1792 637.50 1787.50Q611 1783 589 1773L589 1869Z"  horiz-adv-x="1498" vert-adv-y="2048"  />

      
      <glyph glyph-name="uni022A" unicode="&#x022A;" d="M749 1467Q902 1467 1025.50 1415Q1149 1363 1235 1266Q1321 1169 1367.50 1031Q1414 893 1414 721Q1414 549 1367.50 411Q1321 273 1235 176.50Q1149 80 1025.50 28Q902-24 749-24Q596-24 472.50 28Q349 80 263 176.50Q177 273 130.50 411Q84 549 84 721Q84 893 130.50 1031Q177 1169 263 1266Q349 1363 472.50 1415Q596 1467 749 1467M749 1301Q638 1301 549.50 1260.50Q461 1220 398.50 1144.50Q336 1069 302.50 961.50Q269 854 269 721Q269 588 302.50 481Q336 374 398.50 298.50Q461 223 549.50 182.50Q638 142 749 142Q860 142 948.50 182.50Q1037 223 1099.50 298.50Q1162 374 1195.50 481Q1229 588 1229 721Q1229 854 1195.50 961.50Q1162 1069 1099.50 1144.50Q1037 1220 948.50 1260.50Q860 1301 749 1301M563 1790Q583 1790 600.50 1782Q618 1774 631.50 1760.50Q645 1747 653 1729Q661 1711 661 1691Q661 1670 653 1652Q645 1634 631.50 1620.50Q618 1607 600.50 1599.50Q583 1592 563 1592Q521 1592 492.50 1620.50Q464 1649 464 1691Q464 1711 471.50 1729Q479 1747 492.50 1760.50Q506 1774 524 1782Q542 1790 563 1790M1066 2025L1066 1919L432 1919L432 2025L1066 2025M935 1790Q956 1790 974 1782Q992 1774 1005.50 1760.50Q1019 1747 1026.50 1729Q1034 1711 1034 1691Q1034 1649 1005.50 1620.50Q977 1592 935 1592Q915 1592 897.50 1599.50Q880 1607 866.50 1620.50Q853 1634 845 1652Q837 1670 837 1691Q837 1711 845 1729Q853 1747 866.50 1760.50Q880 1774 897.50 1782Q915 1790 935 1790Z"  horiz-adv-x="1498" vert-adv-y="2048"  />

      
      <glyph glyph-name="uni022C" unicode="&#x022C;" d="M749 1467Q902 1467 1025.50 1415Q1149 1363 1235 1266Q1321 1169 1367.50 1031Q1414 893 1414 721Q1414 549 1367.50 411Q1321 273 1235 176.50Q1149 80 1025.50 28Q902-24 749-24Q596-24 472.50 28Q349 80 263 176.50Q177 273 130.50 411Q84 549 84 721Q84 893 130.50 1031Q177 1169 263 1266Q349 1363 472.50 1415Q596 1467 749 1467M749 1301Q638 1301 549.50 1260.50Q461 1220 398.50 1144.50Q336 1069 302.50 961.50Q269 854 269 721Q269 588 302.50 481Q336 374 398.50 298.50Q461 223 549.50 182.50Q638 142 749 142Q860 142 948.50 182.50Q1037 223 1099.50 298.50Q1162 374 1195.50 481Q1229 588 1229 721Q1229 854 1195.50 961.50Q1162 1069 1099.50 1144.50Q1037 1220 948.50 1260.50Q860 1301 749 1301M873 1535Q841 1535 815.50 1546.50Q790 1558 769 1574.50Q748 1591 730 1611Q712 1631 695 1647.50Q678 1664 661 1675.50Q644 1687 624 1687Q591 1687 573 1651.50Q555 1616 555 1550L441 1550Q441 1668 487.50 1734Q534 1800 619 1800Q653 1800 680.50 1788.50Q708 1777 730 1760.50Q752 1744 770 1724Q788 1704 805 1687.50Q822 1671 838 1659.50Q854 1648 873 1648Q935 1648 935 1786L1049 1786Q1049 1729 1036.50 1682.50Q1024 1636 1001 1603Q978 1570 945.50 1552.50Q913 1535 873 1535M1066 1919L432 1919L432 2025L1066 2025L1066 1919Z"  horiz-adv-x="1498" vert-adv-y="2048"  />

      
      <glyph glyph-name="uni022E" unicode="&#x022E;" d="M749 1467Q902 1467 1025.50 1415Q1149 1363 1235 1266Q1321 1169 1367.50 1031Q1414 893 1414 721Q1414 549 1367.50 411Q1321 273 1235 176.50Q1149 80 1025.50 28Q902-24 749-24Q596-24 472.50 28Q349 80 263 176.50Q177 273 130.50 411Q84 549 84 721Q84 893 130.50 1031Q177 1169 263 1266Q349 1363 472.50 1415Q596 1467 749 1467M749 1301Q638 1301 549.50 1260.50Q461 1220 398.50 1144.50Q336 1069 302.50 961.50Q269 854 269 721Q269 588 302.50 481Q336 374 398.50 298.50Q461 223 549.50 182.50Q638 142 749 142Q860 142 948.50 182.50Q1037 223 1099.50 298.50Q1162 374 1195.50 481Q1229 588 1229 721Q1229 854 1195.50 961.50Q1162 1069 1099.50 1144.50Q1037 1220 948.50 1260.50Q860 1301 749 1301M749 1585Q724 1585 702 1594.50Q680 1604 663.50 1620.50Q647 1637 637.50 1659Q628 1681 628 1706Q628 1731 637.50 1753Q647 1775 663.50 1791.50Q680 1808 702 1817.50Q724 1827 749 1827Q774 1827 796 1817.50Q818 1808 834.50 1791.50Q851 1775 860.50 1753Q870 1731 870 1706Q870 1681 860.50 1659Q851 1637 834.50 1620.50Q818 1604 796 1594.50Q774 1585 749 1585Z"  horiz-adv-x="1498" vert-adv-y="2048"  />

      
      </font>
</defs>
</svg>
