<svg width="16" height="16" viewBox="0 0 16 16" fill="none" xmlns="http://www.w3.org/2000/svg">
<g clip-path="url(#clip0)">
<path d="M4.8815 7H3.21484C2.93884 7 2.71484 6.776 2.71484 6.5C2.71484 6.224 2.93884 6 3.21484 6H4.8815C5.1575 6 5.3815 6.224 5.3815 6.5C5.3815 6.776 5.1575 7 4.8815 7Z" fill="#3D8BE4"/>
<path d="M12.8809 7H7.88086C7.60486 7 7.38086 6.776 7.38086 6.5C7.38086 6.224 7.60486 6 7.88086 6H12.8809C13.1569 6 13.3809 6.224 13.3809 6.5C13.3809 6.776 13.1569 7 12.8809 7Z" fill="#3D8BE4"/>
<path d="M4.8815 9.66699H3.21484C2.93884 9.66699 2.71484 9.44299 2.71484 9.16699C2.71484 8.89099 2.93884 8.66699 3.21484 8.66699H4.8815C5.1575 8.66699 5.3815 8.89099 5.3815 9.16699C5.3815 9.44299 5.1575 9.66699 4.8815 9.66699Z" fill="#3D8BE4"/>
<path d="M12.8809 9.66699H7.88086C7.60486 9.66699 7.38086 9.44299 7.38086 9.16699C7.38086 8.89099 7.60486 8.66699 7.88086 8.66699H12.8809C13.1569 8.66699 13.3809 8.89099 13.3809 9.16699C13.3809 9.44299 13.1569 9.66699 12.8809 9.66699Z" fill="#3D8BE4"/>
<path d="M4.8815 12.333H3.21484C2.93884 12.333 2.71484 12.109 2.71484 11.833C2.71484 11.557 2.93884 11.333 3.21484 11.333H4.8815C5.1575 11.333 5.3815 11.557 5.3815 11.833C5.3815 12.109 5.1575 12.333 4.8815 12.333Z" fill="#3D8BE4"/>
<path d="M12.8809 12.333H7.88086C7.60486 12.333 7.38086 12.109 7.38086 11.833C7.38086 11.557 7.60486 11.333 7.88086 11.333H12.8809C13.1569 11.333 13.3809 11.557 13.3809 11.833C13.3809 12.109 13.1569 12.333 12.8809 12.333Z" fill="#3D8BE4"/>
<path d="M14.1667 15.3337H1.83333C0.822 15.3337 0 14.5117 0 13.5003V2.50033C0 1.48899 0.822 0.666992 1.83333 0.666992H14.1667C15.178 0.666992 16 1.48899 16 2.50033V13.5003C16 14.5117 15.178 15.3337 14.1667 15.3337ZM1.83333 1.66699C1.374 1.66699 1 2.04099 1 2.50033V13.5003C1 13.9597 1.374 14.3337 1.83333 14.3337H14.1667C14.626 14.3337 15 13.9597 15 13.5003V2.50033C15 2.04099 14.626 1.66699 14.1667 1.66699H1.83333Z" fill="#3D8BE4"/>
<path d="M15.5 4H0.5C0.224 4 0 3.776 0 3.5C0 3.224 0.224 3 0.5 3H15.5C15.776 3 16 3.224 16 3.5C16 3.776 15.776 4 15.5 4Z" fill="#3D8BE4"/>
</g>
<defs>
<clipPath id="clip0">
<rect width="16" height="16" fill="white"/>
</clipPath>
</defs>
</svg>
