<svg width="16" height="16" viewBox="0 0 16 16" fill="none" xmlns="http://www.w3.org/2000/svg">
<path d="M8 0H4.53333C4.38607 0 4.26667 0.119401 4.26667 0.266667V2.13333H0.266667C0.119401 2.13333 0 2.25273 0 2.4V15.7333C0 15.8806 0.119401 16 0.266667 16H8C8.14727 16 8.26667 15.8806 8.26667 15.7333V0.266667C8.26667 0.119401 8.14727 0 8 0ZM7.73333 13.8667H4.8V13.3333H7.73333V13.8667ZM0.533333 4H4.26667V12H0.533333V4ZM7.73333 2.93333H4.8V2.13333H7.73333V2.93333ZM0.533333 12.5333H4.26667V13.3333H0.533333V12.5333ZM4.8 12.8V3.46667H7.73333V12.8H4.8ZM7.73333 0.533333V1.6H4.8V0.533333H7.73333ZM4.26667 2.66667V3.46667H0.533333V2.66667H4.26667ZM0.533333 13.8667H4.26667V15.4667H0.533333V13.8667ZM4.8 15.4667V14.4H7.73333V15.4667H4.8Z" fill="#3D8BE4"/>
<path d="M15.9905 14.5999L12.7905 2.33322C12.7726 2.26447 12.7281 2.20575 12.6666 2.16994C12.6053 2.13426 12.5323 2.1245 12.4636 2.14286L8.46362 3.20952C8.32196 3.24728 8.23732 3.39234 8.2743 3.53426L11.4743 15.8009C11.4921 15.8697 11.5368 15.9284 11.5983 15.9641C11.6596 15.9996 11.7326 16.0093 11.8011 15.9908L15.8011 14.9241C15.9425 14.8863 16.027 14.7416 15.9905 14.5999V14.5999ZM9.28224 5.28517L12.767 4.35614L12.8924 4.83609L9.4079 5.76655L9.28224 5.28517ZM13.027 5.35353L14.5737 11.2862L11.0902 12.2156L9.54357 6.28257L13.027 5.35353ZM14.7095 11.8025L14.9825 12.849L11.4977 13.778L11.2257 12.7319L14.7095 11.8025ZM12.342 2.7271L12.6324 3.84038L9.14761 4.76916L8.8575 3.6564L12.342 2.7271ZM11.9227 15.407L11.6324 14.2938L15.1172 13.3645L15.4073 14.4772L11.9227 15.407Z" fill="#3D8BE4"/>
<path d="M3.46641 4.7998H1.33307C1.18581 4.7998 1.06641 4.91921 1.06641 5.06647V7.1998C1.06641 7.34707 1.18581 7.46647 1.33307 7.46647H3.46641C3.61367 7.46647 3.73307 7.34707 3.73307 7.1998V5.06647C3.73307 4.91921 3.61367 4.7998 3.46641 4.7998ZM3.19974 6.93314H1.59974V5.33314H3.19974V6.93314Z" fill="#3D8BE4"/>
</svg>
