<svg width="22" height="22" viewBox="0 0 22 22" fill="none" xmlns="http://www.w3.org/2000/svg">
<path d="M10.084 21.6245V18.3245C5.49148 18.0862 1.83398 14.2728 1.83398 9.62533C1.83398 4.82199 5.73898 0.916992 10.5423 0.916992C15.3457 0.916992 19.2507 4.82199 19.2507 9.62533C19.2507 14.1628 16.0973 18.7278 11.3948 20.992L10.084 21.6245ZM10.5423 2.75033C6.74732 2.75033 3.66732 5.83033 3.66732 9.62533C3.66732 13.4203 6.74732 16.5003 10.5423 16.5003H11.9173V18.6087C15.254 16.5003 17.4173 13.0353 17.4173 9.62533C17.4173 5.83033 14.3373 2.75033 10.5423 2.75033ZM9.62565 13.292H11.459V15.1253H9.62565V13.292ZM11.459 11.917H9.62565C9.62565 8.93783 12.3757 9.16699 12.3757 7.33366C12.3757 6.32533 11.5507 5.50033 10.5423 5.50033C9.53398 5.50033 8.70898 6.32533 8.70898 7.33366H6.87565C6.87565 5.30783 8.51648 3.66699 10.5423 3.66699C12.5682 3.66699 14.209 5.30783 14.209 7.33366C14.209 9.62533 11.459 9.85449 11.459 11.917Z" fill="#3D8BE4"/>
</svg>
