<svg width="16" height="16" viewBox="0 0 16 16" fill="none" xmlns="http://www.w3.org/2000/svg">
<path d="M15.5 0.25H0.5C0.433696 0.25 0.370107 0.276339 0.323223 0.323223C0.276339 0.370107 0.25 0.433696 0.25 0.5V9.5C0.25 9.5663 0.276339 9.62989 0.323223 9.67678C0.370107 9.72366 0.433696 9.75 0.5 9.75H5.87781C6.01754 10.1459 6.26559 10.4947 6.59375 10.7566C6.6172 10.7754 6.64389 10.7898 6.6725 10.7991L6.54187 11.3059L4.45719 12.0006C4.13592 12.0121 3.83137 12.1466 3.60663 12.3765C3.38189 12.6064 3.25419 12.9139 3.25 13.2353L3.02625 15.25H1.75C1.6837 15.25 1.62011 15.2763 1.57322 15.3232C1.52634 15.3701 1.5 15.4337 1.5 15.5C1.5 15.5663 1.52634 15.6299 1.57322 15.6768C1.62011 15.7237 1.6837 15.75 1.75 15.75H14.25C14.3163 15.75 14.3799 15.7237 14.4268 15.6768C14.4737 15.6299 14.5 15.5663 14.5 15.5C14.5 15.4337 14.4737 15.3701 14.4268 15.3232C14.3799 15.2763 14.3163 15.25 14.25 15.25H12.9738L12.75 13.2353C12.7458 12.9139 12.6181 12.6064 12.3934 12.3765C12.1686 12.1466 11.8641 12.0121 11.5428 12.0006L9.45813 11.3059L9.3275 10.7991C9.35611 10.7898 9.3828 10.7754 9.40625 10.7566C9.73441 10.4947 9.98246 10.1459 10.1222 9.75H15.5C15.5663 9.75 15.6299 9.72366 15.6768 9.67678C15.7237 9.62989 15.75 9.5663 15.75 9.5V0.5C15.75 0.433696 15.7237 0.370107 15.6768 0.323223C15.6299 0.276339 15.5663 0.25 15.5 0.25ZM11.4209 12.4872C11.4464 12.4956 11.4731 12.5 11.5 12.5C11.6988 12.5003 11.8894 12.5794 12.03 12.72C12.1706 12.8606 12.2497 13.0512 12.25 13.25C12.2501 13.2592 12.2506 13.2684 12.2516 13.2775L12.4706 15.25H11V14C11 13.9337 10.9737 13.8701 10.9268 13.8232C10.8799 13.7763 10.8163 13.75 10.75 13.75C10.6837 13.75 10.6201 13.7763 10.5732 13.8232C10.5263 13.8701 10.5 13.9337 10.5 14V15.25H5.5V14C5.5 13.9337 5.47366 13.8701 5.42678 13.8232C5.37989 13.7763 5.3163 13.75 5.25 13.75C5.1837 13.75 5.12011 13.7763 5.07322 13.8232C5.02634 13.8701 5 13.9337 5 14V15.25H3.52938L3.74844 13.2775C3.74943 13.2684 3.74995 13.2592 3.75 13.25C3.75026 13.0512 3.82937 12.8606 3.96996 12.72C4.11056 12.5794 4.30117 12.5003 4.5 12.5C4.52687 12.5 4.55356 12.4956 4.57906 12.4872L6.79063 11.75H9.20938L11.4209 12.4872ZM9.75 9C9.75042 9.25162 9.69634 9.50035 9.59147 9.72908C9.4866 9.95781 9.33343 10.1611 9.1425 10.325C9.10059 10.2959 9.05077 10.2803 8.99975 10.2803C8.94872 10.2804 8.89892 10.296 8.85704 10.3252C8.81516 10.3543 8.7832 10.3956 8.76547 10.4434C8.74773 10.4913 8.74506 10.5434 8.75781 10.5928L8.9275 11.25H7.0725L7.24219 10.5928C7.25494 10.5434 7.25227 10.4913 7.23453 10.4434C7.2168 10.3956 7.18484 10.3543 7.14296 10.3252C7.10108 10.296 7.05128 10.2804 7.00025 10.2803C6.94923 10.2803 6.89941 10.2959 6.8575 10.325C6.66657 10.1611 6.5134 9.95781 6.40853 9.72908C6.30366 9.50035 6.24958 9.25162 6.25 9V8C6.25 7.53587 6.43437 7.09075 6.76256 6.76256C7.09075 6.43437 7.53587 6.25 8 6.25C8.46413 6.25 8.90925 6.43437 9.23744 6.76256C9.56563 7.09075 9.75 7.53587 9.75 8V9ZM15.25 9.25H10.2362C10.2454 9.16698 10.25 9.08352 10.25 9V8C10.25 7.40326 10.0129 6.83097 9.59099 6.40901C9.16903 5.98705 8.59674 5.75 8 5.75C7.40326 5.75 6.83097 5.98705 6.40901 6.40901C5.98705 6.83097 5.75 7.40326 5.75 8V9C5.75002 9.08352 5.75461 9.16698 5.76375 9.25H0.75V0.75H15.25V9.25Z" fill="#3D8BE4"/>
<path d="M3 1.75H8.25C8.3163 1.75 8.37989 1.72366 8.42678 1.67678C8.47366 1.62989 8.5 1.5663 8.5 1.5C8.5 1.4337 8.47366 1.37011 8.42678 1.32322C8.37989 1.27634 8.3163 1.25 8.25 1.25H3C2.9337 1.25 2.87011 1.27634 2.82322 1.32322C2.77634 1.37011 2.75 1.4337 2.75 1.5C2.75 1.5663 2.77634 1.62989 2.82322 1.67678C2.87011 1.72366 2.9337 1.75 3 1.75V1.75Z" fill="#3D8BE4"/>
<path d="M3 2.5H7.5C7.5663 2.5 7.62989 2.47366 7.67678 2.42678C7.72366 2.37989 7.75 2.3163 7.75 2.25C7.75 2.1837 7.72366 2.12011 7.67678 2.07322C7.62989 2.02634 7.5663 2 7.5 2H3C2.9337 2 2.87011 2.02634 2.82322 2.07322C2.77634 2.12011 2.75 2.1837 2.75 2.25C2.75 2.3163 2.77634 2.37989 2.82322 2.42678C2.87011 2.47366 2.9337 2.5 3 2.5V2.5Z" fill="#3D8BE4"/>
<path d="M3 3.25H5.5C5.5663 3.25 5.62989 3.22366 5.67678 3.17678C5.72366 3.12989 5.75 3.0663 5.75 3C5.75 2.9337 5.72366 2.87011 5.67678 2.82322C5.62989 2.77634 5.5663 2.75 5.5 2.75H3C2.9337 2.75 2.87011 2.77634 2.82322 2.82322C2.77634 2.87011 2.75 2.9337 2.75 3C2.75 3.0663 2.77634 3.12989 2.82322 3.17678C2.87011 3.22366 2.9337 3.25 3 3.25V3.25Z" fill="#3D8BE4"/>
<path d="M1.5 3.25H2.25C2.3163 3.25 2.37989 3.22366 2.42678 3.17678C2.47366 3.12989 2.5 3.0663 2.5 3V1.5C2.5 1.4337 2.47366 1.37011 2.42678 1.32322C2.37989 1.27634 2.3163 1.25 2.25 1.25H1.5C1.4337 1.25 1.37011 1.27634 1.32322 1.32322C1.27634 1.37011 1.25 1.4337 1.25 1.5V3C1.25 3.0663 1.27634 3.12989 1.32322 3.17678C1.37011 3.22366 1.4337 3.25 1.5 3.25ZM1.75 1.75H2V2.75H1.75V1.75Z" fill="#3D8BE4"/>
<path d="M12.5 1.25C12.055 1.25 11.62 1.38196 11.25 1.62919C10.88 1.87643 10.5916 2.22783 10.4213 2.63896C10.251 3.0501 10.2064 3.5025 10.2932 3.93895C10.3801 4.37541 10.5943 4.77632 10.909 5.09099C11.2237 5.40566 11.6246 5.61995 12.061 5.70677C12.4975 5.79358 12.9499 5.74903 13.361 5.57873C13.7722 5.40843 14.1236 5.12004 14.3708 4.75003C14.618 4.38002 14.75 3.94501 14.75 3.5C14.7493 2.90347 14.512 2.33158 14.0902 1.90977C13.6684 1.48796 13.0965 1.25069 12.5 1.25V1.25ZM12.75 1.76813C13.1236 1.82265 13.4697 1.99632 13.7367 2.26332C14.0037 2.53032 14.1774 2.87637 14.2319 3.25H12.75V1.76813ZM10.75 3.5C10.7506 3.07937 10.9025 2.67298 11.1778 2.35503C11.4532 2.03708 11.8338 1.82877 12.25 1.76813V3.39656L11.0991 4.5475C10.8721 4.24546 10.7496 3.87779 10.75 3.5V3.5ZM12.5 5.25C12.1222 5.25039 11.7545 5.12787 11.4525 4.90094L12.6034 3.75H14.2319C14.1712 4.16624 13.9629 4.54678 13.645 4.82216C13.327 5.09755 12.9206 5.2494 12.5 5.25Z" fill="#3D8BE4"/>
<path d="M14.25 6.25H11.75C11.6837 6.25 11.6201 6.27634 11.5732 6.32322C11.5263 6.37011 11.5 6.4337 11.5 6.5C11.5 6.5663 11.5263 6.62989 11.5732 6.67678C11.6201 6.72366 11.6837 6.75 11.75 6.75H14.25C14.3163 6.75 14.3799 6.72366 14.4268 6.67678C14.4737 6.62989 14.5 6.5663 14.5 6.5C14.5 6.4337 14.4737 6.37011 14.4268 6.32322C14.3799 6.27634 14.3163 6.25 14.25 6.25Z" fill="#3D8BE4"/>
<path d="M14.25 7H11.75C11.7172 7 11.6847 7.00646 11.6543 7.01903C11.624 7.03159 11.5964 7.05 11.5732 7.07322L10.6982 7.94822C10.6513 7.9951 10.625 8.05869 10.625 8.125C10.625 8.19131 10.6513 8.2549 10.6982 8.30178C10.7451 8.34867 10.8087 8.37501 10.875 8.37501C10.9413 8.37501 11.0049 8.34867 11.0518 8.30178L11.8536 7.5H14.25C14.3163 7.5 14.3799 7.47366 14.4268 7.42678C14.4737 7.37989 14.5 7.3163 14.5 7.25C14.5 7.1837 14.4737 7.12011 14.4268 7.07322C14.3799 7.02634 14.3163 7 14.25 7Z" fill="#3D8BE4"/>
<path d="M5.5 6.5V4.25C5.5 4.1837 5.47366 4.12011 5.42678 4.07322C5.37989 4.02634 5.3163 4 5.25 4H4.5C4.4337 4 4.37011 4.02634 4.32322 4.07322C4.27634 4.12011 4.25 4.1837 4.25 4.25V6.5H4V5C4 4.9337 3.97366 4.87011 3.92678 4.82322C3.87989 4.77634 3.8163 4.75 3.75 4.75H3C2.9337 4.75 2.87011 4.77634 2.82322 4.82322C2.77634 4.87011 2.75 4.9337 2.75 5V6.5H2.5V4C2.5 3.9337 2.47366 3.87011 2.42678 3.82322C2.37989 3.77634 2.3163 3.75 2.25 3.75H1.5C1.4337 3.75 1.37011 3.77634 1.32322 3.82322C1.27634 3.87011 1.25 3.9337 1.25 4V6.5C1.1837 6.5 1.12011 6.52634 1.07322 6.57322C1.02634 6.62011 1 6.6837 1 6.75C1 6.8163 1.02634 6.87989 1.07322 6.92678C1.12011 6.97366 1.1837 7 1.25 7H5.5C5.5663 7 5.62989 6.97366 5.67678 6.92678C5.72366 6.87989 5.75 6.8163 5.75 6.75C5.75 6.6837 5.72366 6.62011 5.67678 6.57322C5.62989 6.52634 5.5663 6.5 5.5 6.5ZM2 6.5H1.75V4.25H2V6.5ZM3.5 6.5H3.25V5.25H3.5V6.5ZM5 6.5H4.75V4.5H5V6.5Z" fill="#3D8BE4"/>
<path d="M1.25 7.75H3.89647L4.94822 8.80178C4.9951 8.84867 5.05869 8.87501 5.125 8.87501C5.19131 8.87501 5.2549 8.84867 5.30178 8.80178C5.34867 8.7549 5.37501 8.69131 5.37501 8.625C5.37501 8.55869 5.34867 8.4951 5.30178 8.44822L4.17678 7.32322C4.15357 7.3 4.126 7.28159 4.09567 7.26903C4.06534 7.25646 4.03283 7.25 4 7.25H1.25C1.1837 7.25 1.12011 7.27634 1.07322 7.32322C1.02634 7.37011 1 7.4337 1 7.5C1 7.5663 1.02634 7.62989 1.07322 7.67678C1.12011 7.72366 1.1837 7.75 1.25 7.75Z" fill="#3D8BE4"/>
<path d="M1.25 8.5H2.25C2.3163 8.5 2.37989 8.47366 2.42678 8.42678C2.47366 8.37989 2.5 8.3163 2.5 8.25C2.5 8.1837 2.47366 8.12011 2.42678 8.07322C2.37989 8.02634 2.3163 8 2.25 8H1.25C1.1837 8 1.12011 8.02634 1.07322 8.07322C1.02634 8.12011 1 8.1837 1 8.25C1 8.3163 1.02634 8.37989 1.07322 8.42678C1.12011 8.47366 1.1837 8.5 1.25 8.5Z" fill="#3D8BE4"/>
</svg>
