<svg width="16" height="16" viewBox="0 0 16 16" fill="none" xmlns="http://www.w3.org/2000/svg">
<g clip-path="url(#clip0)">
<path d="M11.6673 15.9996C9.27798 15.9996 7.33398 14.0557 7.33398 11.6663C7.33398 9.277 9.27798 7.33301 11.6673 7.33301C14.0567 7.33301 16.0007 9.277 16.0007 11.6663C16.0007 14.0557 14.0567 15.9996 11.6673 15.9996ZM11.6673 7.99967C9.64532 7.99967 8.00065 9.645 8.00065 11.6663C8.00065 13.6877 9.64532 15.333 11.6673 15.333C13.6893 15.333 15.334 13.6877 15.334 11.6663C15.334 9.645 13.6893 7.99967 11.6673 7.99967Z" fill="#3D8BE4"/>
<path d="M11.6673 14.0003C11.4833 14.0003 11.334 13.851 11.334 13.667V11.0003C11.334 10.8163 11.4833 10.667 11.6673 10.667C11.8513 10.667 12.0006 10.8163 12.0006 11.0003V13.667C12.0006 13.851 11.8513 14.0003 11.6673 14.0003Z" fill="#3D8BE4"/>
<path d="M11.6673 9.99967C11.8514 9.99967 12.0006 9.85043 12.0006 9.66634C12.0006 9.48224 11.8514 9.33301 11.6673 9.33301C11.4832 9.33301 11.334 9.48224 11.334 9.66634C11.334 9.85043 11.4832 9.99967 11.6673 9.99967Z" fill="#3D8BE4"/>
<path d="M6.33333 14H1.66667C0.748 14 0 13.2527 0 12.3333V3.66667C0 2.74733 0.748 2 1.66667 2H3C3.184 2 3.33333 2.14933 3.33333 2.33333C3.33333 2.51733 3.184 2.66667 3 2.66667H1.66667C1.11533 2.66667 0.666667 3.11533 0.666667 3.66667V12.3333C0.666667 12.8847 1.11533 13.3333 1.66667 13.3333H6.33333C6.51733 13.3333 6.66667 13.4827 6.66667 13.6667C6.66667 13.8507 6.51733 14 6.33333 14Z" fill="#3D8BE4"/>
<path d="M7.66602 4H3.66602C3.11468 4 2.66602 3.55133 2.66602 3V1.66667C2.66602 1.48267 2.81535 1.33333 2.99935 1.33333H4.03268C4.18802 0.573333 4.86068 0 5.66602 0C6.47135 0 7.14402 0.573333 7.29935 1.33333H8.33268C8.51668 1.33333 8.66602 1.48267 8.66602 1.66667V3C8.66602 3.55133 8.21735 4 7.66602 4ZM3.33268 2V3C3.33268 3.18333 3.48202 3.33333 3.66602 3.33333H7.66602C7.85002 3.33333 7.99935 3.18333 7.99935 3V2H6.99935C6.81535 2 6.66602 1.85067 6.66602 1.66667C6.66602 1.11533 6.21735 0.666667 5.66602 0.666667C5.11468 0.666667 4.66602 1.11533 4.66602 1.66667C4.66602 1.85067 4.51668 2 4.33268 2H3.33268Z" fill="#3D8BE4"/>
<path d="M8.99999 5.99968H2.33333C2.14933 5.99968 2 5.85035 2 5.66634C2 5.48234 2.14933 5.33301 2.33333 5.33301H8.99999C9.18399 5.33301 9.33332 5.48234 9.33332 5.66634C9.33332 5.85035 9.18399 5.99968 8.99999 5.99968Z" fill="#3D8BE4"/>
<path d="M7 7.99967H2.33333C2.14933 7.99967 2 7.85033 2 7.66634C2 7.48234 2.14933 7.33301 2.33333 7.33301H7C7.184 7.33301 7.33333 7.48234 7.33333 7.66634C7.33333 7.85033 7.184 7.99967 7 7.99967Z" fill="#3D8BE4"/>
<path d="M5.66667 9.99967H2.33333C2.14933 9.99967 2 9.85033 2 9.66634C2 9.48234 2.14933 9.33301 2.33333 9.33301H5.66667C5.85067 9.33301 6 9.48234 6 9.66634C6 9.85033 5.85067 9.99967 5.66667 9.99967Z" fill="#3D8BE4"/>
<path d="M11 6C10.816 6 10.6667 5.85067 10.6667 5.66667V3.66667C10.6667 3.11533 10.218 2.66667 9.66666 2.66667H8.33333C8.14933 2.66667 8 2.51733 8 2.33333C8 2.14933 8.14933 2 8.33333 2H9.66666C10.5853 2 11.3333 2.74733 11.3333 3.66667V5.66667C11.3333 5.85067 11.184 6 11 6Z" fill="#3D8BE4"/>
</g>
<defs>
<clipPath id="clip0">
<rect width="16" height="16" fill="white"/>
</clipPath>
</defs>
</svg>
