<svg width="20" height="20" viewBox="0 0 20 20" fill="none" xmlns="http://www.w3.org/2000/svg">
<g clip-path="url(#clip0)">
<path fill-rule="evenodd" clip-rule="evenodd" d="M18.3333 16.6667C18.5177 16.6667 18.6667 16.5173 18.6667 16.3333V4.33333C18.6667 4.14933 18.5177 4 18.3333 4C18.149 4 18 4.14933 18 4.33333V16.3333C18 16.5173 18.149 16.6667 18.3333 16.6667ZM19.3333 18.3333V18H18.3333C18.149 18 18 17.8507 18 17.6667C18 17.4827 18.149 17.3333 18.3333 17.3333H19.3333V3.33333H18.3333C18.149 3.33333 18 3.184 18 3C18 2.816 18.149 2.66667 18.3333 2.66667H19.1273L18.3333 1.07867L17.3333 3.07867V18.3333C17.3333 18.8847 17.782 19.3333 18.3333 19.3333C18.8847 19.3333 19.3333 18.8847 19.3333 18.3333ZM20.0067 3C20.0067 3.02267 20.0043 3.045 20 3.06667V18.3333C20 19.2523 19.2523 20 18.3333 20C17.4143 20 16.6667 19.2523 16.6667 18.3333V3C16.6667 2.94833 16.6787 2.897 16.7017 2.851L18.035 0.184333C18.1483 -0.0416667 18.5183 -0.0416667 18.6317 0.184333L19.938 2.79733C19.981 2.85367 20.0067 2.92367 20.0067 3ZM10.3333 10H7C6.81567 10 6.66667 10.1493 6.66667 10.3333C6.66667 10.5173 6.81567 10.6667 7 10.6667H10.3333C10.5177 10.6667 10.6667 10.5173 10.6667 10.3333C10.6667 10.1493 10.5177 10 10.3333 10ZM7 9.33333H9C9.18433 9.33333 9.33333 9.184 9.33333 9C9.33333 8.816 9.18433 8.66667 9 8.66667H7C6.81567 8.66667 6.66667 8.816 6.66667 9C6.66667 9.184 6.81567 9.33333 7 9.33333ZM5.33333 12H12V7.33333H5.33333V12ZM4.66667 12.3333V7C4.66667 6.816 4.81567 6.66667 5 6.66667H12.3333C12.5177 6.66667 12.6667 6.816 12.6667 7V12.3333C12.6667 12.5173 12.5177 12.6667 12.3333 12.6667H5C4.81567 12.6667 4.66667 12.5173 4.66667 12.3333ZM0.666667 3.029V18.3333C0.666667 18.866 1.134 19.3333 1.66667 19.3333H14.3333C14.866 19.3333 15.3333 18.866 15.3333 18.3333V3.33333H1.66667C1.39233 3.33333 1.001 3.25433 0.666667 3.029ZM15.6667 0.666667H1.33333C0.965667 0.666667 0.666667 0.965667 0.666667 1.33333V1.66667C0.666667 2.60767 1.50133 2.66467 1.66867 2.66667H15.6667C15.851 2.66667 16 2.816 16 3V18.3333C16 19.2367 15.2367 20 14.3333 20H1.66667C0.763333 20 0 19.2367 0 18.3333V1.33333C0 0.598 0.598 0 1.33333 0H15.6667C15.851 0 16 0.149333 16 0.333333C16 0.517333 15.851 0.666667 15.6667 0.666667ZM1.66667 18.6667C1.851 18.6667 2 18.5173 2 18.3333V4.33333C2 4.14933 1.851 4 1.66667 4C1.48233 4 1.33333 4.14933 1.33333 4.33333V18.3333C1.33333 18.5173 1.48233 18.6667 1.66667 18.6667ZM15 1.33333C15.1843 1.33333 15.3333 1.48267 15.3333 1.66667C15.3333 1.85067 15.1843 2 15 2H1.66667C1.48233 2 1.33333 1.85067 1.33333 1.66667C1.33333 1.48267 1.48233 1.33333 1.66667 1.33333H15Z" fill="#3D8BE4"/>
</g>
<defs>
<clipPath id="clip0">
<rect width="20" height="20" fill="white"/>
</clipPath>
</defs>
</svg>
