<svg width="22" height="22" viewBox="0 0 22 22" fill="none" xmlns="http://www.w3.org/2000/svg">
<path d="M3.66732 5.49967H1.83398V18.333C1.83398 19.3413 2.65898 20.1663 3.66732 20.1663H16.5007V18.333H3.66732V5.49967ZM18.334 1.83301H7.33398C6.32565 1.83301 5.50065 2.65801 5.50065 3.66634V14.6663C5.50065 15.6747 6.32565 16.4997 7.33398 16.4997H18.334C19.3423 16.4997 20.1673 15.6747 20.1673 14.6663V3.66634C20.1673 2.65801 19.3423 1.83301 18.334 1.83301ZM18.334 14.6663H7.33398V3.66634H18.334V14.6663ZM11.9173 12.833H13.7507V10.083H16.5007V8.24967H13.7507V5.49967H11.9173V8.24967H9.16732V10.083H11.9173V12.833Z" fill="#3D8BE4"/>
</svg>
