<svg width="22" height="22" viewBox="0 0 22 22" fill="none" xmlns="http://www.w3.org/2000/svg">
<path d="M19.6265 10.6147L11.3765 2.36467C11.0465 2.03467 10.5882 1.83301 10.084 1.83301H3.66732C2.65898 1.83301 1.83398 2.65801 1.83398 3.66634V10.083C1.83398 10.5872 2.03565 11.0455 2.37482 11.3847L10.6248 19.6347C10.9548 19.9647 11.4132 20.1663 11.9173 20.1663C12.4215 20.1663 12.8798 19.9647 13.2098 19.6255L19.6265 13.2088C19.9657 12.8788 20.1673 12.4205 20.1673 11.9163C20.1673 11.4122 19.9565 10.9447 19.6265 10.6147ZM11.9173 18.3422L3.66732 10.083V3.66634H10.084V3.65717L18.334 11.9072L11.9173 18.3422V18.3422Z" fill="#3D8BE4"/>
<path d="M5.95898 7.33301C6.71838 7.33301 7.33398 6.7174 7.33398 5.95801C7.33398 5.19862 6.71838 4.58301 5.95898 4.58301C5.19959 4.58301 4.58398 5.19862 4.58398 5.95801C4.58398 6.7174 5.19959 7.33301 5.95898 7.33301Z" fill="#3D8BE4"/>
<path d="M8.1582 11.5042C8.1582 12.0267 8.36904 12.485 8.7082 12.8333L11.9165 16.0417L15.1249 12.8333C15.464 12.4942 15.6749 12.0175 15.6749 11.5042C15.6749 10.4683 14.8315 9.625 13.7957 9.625C13.2732 9.625 12.8057 9.83583 12.4665 10.175L11.9165 10.725L11.3665 10.1842C11.0274 9.83583 10.5507 9.625 10.0374 9.625C9.00154 9.625 8.1582 10.4683 8.1582 11.5042V11.5042Z" fill="#3D8BE4"/>
</svg>
