<svg width="20" height="20" viewBox="0 0 20 20" fill="none" xmlns="http://www.w3.org/2000/svg">
<path d="M10.0007 18.333C10.9173 18.333 11.6673 17.583 11.6673 16.6663H8.33398C8.33398 17.583 9.08398 18.333 10.0007 18.333ZM15.0006 13.333V9.16634C15.0006 6.60801 13.6423 4.46634 11.2507 3.89967V3.33301C11.2507 2.64134 10.6923 2.08301 10.0007 2.08301C9.30898 2.08301 8.75065 2.64134 8.75065 3.33301V3.89967C6.36732 4.46634 5.00065 6.59967 5.00065 9.16634V13.333L3.33398 14.9997V15.833H16.6673V14.9997L15.0006 13.333ZM13.334 14.1663H6.66732V9.16634C6.66732 7.09967 7.92565 5.41634 10.0007 5.41634C12.0757 5.41634 13.334 7.09967 13.334 9.16634V14.1663Z" fill="#3D8BE4"/>
</svg>
